<?xml version="1.0" encoding="utf-8"?>
<svg xmlns="http://www.w3.org/2000/svg" xmlns:xlink="http://www.w3.org/1999/xlink" width="600" height="400" viewBox="0 0 2400 1600">
<defs>
  <clipPath id="clip590">
    <rect x="0" y="0" width="2400" height="1600"/>
  </clipPath>
</defs>
<path clip-path="url(#clip590)" d="
M0 1600 L2400 1600 L2400 0 L0 0  Z
  " fill="#ffffff" fill-rule="evenodd" fill-opacity="1"/>
<defs>
  <clipPath id="clip591">
    <rect x="480" y="0" width="1681" height="1600"/>
  </clipPath>
</defs>
<path clip-path="url(#clip590)" d="
M219.866 1423.18 L2352.76 1423.18 L2352.76 123.472 L219.866 123.472  Z
  " fill="#ffffff" fill-rule="evenodd" fill-opacity="1"/>
<defs>
  <clipPath id="clip592">
    <rect x="219" y="123" width="2134" height="1301"/>
  </clipPath>
</defs>
<polyline clip-path="url(#clip592)" style="stroke:#000000; stroke-width:2; stroke-opacity:0.1; fill:none" points="
  567.683,1423.18 567.683,123.472 
  "/>
<polyline clip-path="url(#clip592)" style="stroke:#000000; stroke-width:2; stroke-opacity:0.1; fill:none" points="
  1142.59,1423.18 1142.59,123.472 
  "/>
<polyline clip-path="url(#clip592)" style="stroke:#000000; stroke-width:2; stroke-opacity:0.1; fill:none" points="
  1717.49,1423.18 1717.49,123.472 
  "/>
<polyline clip-path="url(#clip592)" style="stroke:#000000; stroke-width:2; stroke-opacity:0.1; fill:none" points="
  2292.39,1423.18 2292.39,123.472 
  "/>
<polyline clip-path="url(#clip590)" style="stroke:#000000; stroke-width:4; stroke-opacity:1; fill:none" points="
  219.866,1423.18 2352.76,1423.18 
  "/>
<polyline clip-path="url(#clip590)" style="stroke:#000000; stroke-width:4; stroke-opacity:1; fill:none" points="
  567.683,1423.18 567.683,1407.58 
  "/>
<polyline clip-path="url(#clip590)" style="stroke:#000000; stroke-width:4; stroke-opacity:1; fill:none" points="
  1142.59,1423.18 1142.59,1407.58 
  "/>
<polyline clip-path="url(#clip590)" style="stroke:#000000; stroke-width:4; stroke-opacity:1; fill:none" points="
  1717.49,1423.18 1717.49,1407.58 
  "/>
<polyline clip-path="url(#clip590)" style="stroke:#000000; stroke-width:4; stroke-opacity:1; fill:none" points="
  2292.39,1423.18 2292.39,1407.58 
  "/>
<path clip-path="url(#clip590)" d="M 0 0 M530.785 1452.37 Q527.173 1452.37 525.345 1455.94 Q523.539 1459.48 523.539 1466.61 Q523.539 1473.71 525.345 1477.28 Q527.173 1480.82 530.785 1480.82 Q534.419 1480.82 536.224 1477.28 Q538.053 1473.71 538.053 1466.61 Q538.053 1459.48 536.224 1455.94 Q534.419 1452.37 530.785 1452.37 M530.785 1448.67 Q536.595 1448.67 539.65 1453.27 Q542.729 1457.86 542.729 1466.61 Q542.729 1475.33 539.65 1479.94 Q536.595 1484.52 530.785 1484.52 Q524.974 1484.52 521.896 1479.94 Q518.84 1475.33 518.84 1466.61 Q518.84 1457.86 521.896 1453.27 Q524.974 1448.67 530.785 1448.67 Z" fill="#000000" fill-rule="evenodd" fill-opacity="1" /><path clip-path="url(#clip590)" d="M 0 0 M550.946 1477.97 L555.831 1477.97 L555.831 1483.85 L550.946 1483.85 L550.946 1477.97 Z" fill="#000000" fill-rule="evenodd" fill-opacity="1" /><path clip-path="url(#clip590)" d="M 0 0 M578.863 1453.37 L567.058 1471.81 L578.863 1471.81 L578.863 1453.37 M577.636 1449.29 L583.516 1449.29 L583.516 1471.81 L588.446 1471.81 L588.446 1475.7 L583.516 1475.7 L583.516 1483.85 L578.863 1483.85 L578.863 1475.7 L563.261 1475.7 L563.261 1471.19 L577.636 1449.29 Z" fill="#000000" fill-rule="evenodd" fill-opacity="1" /><path clip-path="url(#clip590)" d="M 0 0 M600.205 1479.92 L616.525 1479.92 L616.525 1483.85 L594.581 1483.85 L594.581 1479.92 Q597.243 1477.16 601.826 1472.53 Q606.432 1467.88 607.613 1466.54 Q609.858 1464.01 610.738 1462.28 Q611.641 1460.52 611.641 1458.83 Q611.641 1456.07 609.696 1454.34 Q607.775 1452.6 604.673 1452.6 Q602.474 1452.6 600.02 1453.37 Q597.59 1454.13 594.812 1455.68 L594.812 1450.96 Q597.636 1449.82 600.09 1449.25 Q602.543 1448.67 604.58 1448.67 Q609.951 1448.67 613.145 1451.35 Q616.34 1454.04 616.34 1458.53 Q616.34 1460.66 615.529 1462.58 Q614.742 1464.48 612.636 1467.07 Q612.057 1467.74 608.955 1470.96 Q605.854 1474.15 600.205 1479.92 Z" fill="#000000" fill-rule="evenodd" fill-opacity="1" /><path clip-path="url(#clip590)" d="M 0 0 M1104.65 1452.37 Q1101.03 1452.37 1099.21 1455.94 Q1097.4 1459.48 1097.4 1466.61 Q1097.4 1473.71 1099.21 1477.28 Q1101.03 1480.82 1104.65 1480.82 Q1108.28 1480.82 1110.09 1477.28 Q1111.91 1473.71 1111.91 1466.61 Q1111.91 1459.48 1110.09 1455.94 Q1108.28 1452.37 1104.65 1452.37 M1104.65 1448.67 Q1110.46 1448.67 1113.51 1453.27 Q1116.59 1457.86 1116.59 1466.61 Q1116.59 1475.33 1113.51 1479.94 Q1110.46 1484.52 1104.65 1484.52 Q1098.84 1484.52 1095.76 1479.94 Q1092.7 1475.33 1092.7 1466.61 Q1092.7 1457.86 1095.76 1453.27 Q1098.84 1448.67 1104.65 1448.67 Z" fill="#000000" fill-rule="evenodd" fill-opacity="1" /><path clip-path="url(#clip590)" d="M 0 0 M1124.81 1477.97 L1129.69 1477.97 L1129.69 1483.85 L1124.81 1483.85 L1124.81 1477.97 Z" fill="#000000" fill-rule="evenodd" fill-opacity="1" /><path clip-path="url(#clip590)" d="M 0 0 M1152.72 1453.37 L1140.92 1471.81 L1152.72 1471.81 L1152.72 1453.37 M1151.5 1449.29 L1157.38 1449.29 L1157.38 1471.81 L1162.31 1471.81 L1162.31 1475.7 L1157.38 1475.7 L1157.38 1483.85 L1152.72 1483.85 L1152.72 1475.7 L1137.12 1475.7 L1137.12 1471.19 L1151.5 1449.29 Z" fill="#000000" fill-rule="evenodd" fill-opacity="1" /><path clip-path="url(#clip590)" d="M 0 0 M1182.89 1453.37 L1171.08 1471.81 L1182.89 1471.81 L1182.89 1453.37 M1181.66 1449.29 L1187.54 1449.29 L1187.54 1471.81 L1192.47 1471.81 L1192.47 1475.7 L1187.54 1475.7 L1187.54 1483.85 L1182.89 1483.85 L1182.89 1475.7 L1167.28 1475.7 L1167.28 1471.19 L1181.66 1449.29 Z" fill="#000000" fill-rule="evenodd" fill-opacity="1" /><path clip-path="url(#clip590)" d="M 0 0 M1679.71 1452.37 Q1676.1 1452.37 1674.27 1455.94 Q1672.47 1459.48 1672.47 1466.61 Q1672.47 1473.71 1674.27 1477.28 Q1676.1 1480.82 1679.71 1480.82 Q1683.34 1480.82 1685.15 1477.28 Q1686.98 1473.71 1686.98 1466.61 Q1686.98 1459.48 1685.15 1455.94 Q1683.34 1452.37 1679.71 1452.37 M1679.71 1448.67 Q1685.52 1448.67 1688.58 1453.27 Q1691.66 1457.86 1691.66 1466.61 Q1691.66 1475.33 1688.58 1479.94 Q1685.52 1484.52 1679.71 1484.52 Q1673.9 1484.52 1670.82 1479.94 Q1667.77 1475.33 1667.77 1466.61 Q1667.77 1457.86 1670.82 1453.27 Q1673.9 1448.67 1679.71 1448.67 Z" fill="#000000" fill-rule="evenodd" fill-opacity="1" /><path clip-path="url(#clip590)" d="M 0 0 M1699.87 1477.97 L1704.76 1477.97 L1704.76 1483.85 L1699.87 1483.85 L1699.87 1477.97 Z" fill="#000000" fill-rule="evenodd" fill-opacity="1" /><path clip-path="url(#clip590)" d="M 0 0 M1727.79 1453.37 L1715.98 1471.81 L1727.79 1471.81 L1727.79 1453.37 M1726.56 1449.29 L1732.44 1449.29 L1732.44 1471.81 L1737.37 1471.81 L1737.37 1475.7 L1732.44 1475.7 L1732.44 1483.85 L1727.79 1483.85 L1727.79 1475.7 L1712.19 1475.7 L1712.19 1471.19 L1726.56 1449.29 Z" fill="#000000" fill-rule="evenodd" fill-opacity="1" /><path clip-path="url(#clip590)" d="M 0 0 M1755.68 1464.71 Q1752.53 1464.71 1750.68 1466.86 Q1748.85 1469.01 1748.85 1472.76 Q1748.85 1476.49 1750.68 1478.67 Q1752.53 1480.82 1755.68 1480.82 Q1758.83 1480.82 1760.66 1478.67 Q1762.51 1476.49 1762.51 1472.76 Q1762.51 1469.01 1760.66 1466.86 Q1758.83 1464.71 1755.68 1464.71 M1764.96 1450.06 L1764.96 1454.31 Q1763.21 1453.48 1761.4 1453.04 Q1759.62 1452.6 1757.86 1452.6 Q1753.23 1452.6 1750.78 1455.73 Q1748.34 1458.85 1748 1465.17 Q1749.36 1463.16 1751.42 1462.09 Q1753.48 1461 1755.96 1461 Q1761.17 1461 1764.18 1464.18 Q1767.21 1467.32 1767.21 1472.76 Q1767.21 1478.09 1764.06 1481.31 Q1760.91 1484.52 1755.68 1484.52 Q1749.69 1484.52 1746.52 1479.94 Q1743.34 1475.33 1743.34 1466.61 Q1743.34 1458.41 1747.23 1453.55 Q1751.12 1448.67 1757.67 1448.67 Q1759.43 1448.67 1761.21 1449.01 Q1763.02 1449.36 1764.96 1450.06 Z" fill="#000000" fill-rule="evenodd" fill-opacity="1" /><path clip-path="url(#clip590)" d="M 0 0 M2254.74 1452.37 Q2251.13 1452.37 2249.3 1455.94 Q2247.5 1459.48 2247.5 1466.61 Q2247.5 1473.71 2249.3 1477.28 Q2251.13 1480.82 2254.74 1480.82 Q2258.38 1480.82 2260.18 1477.28 Q2262.01 1473.71 2262.01 1466.61 Q2262.01 1459.48 2260.18 1455.94 Q2258.38 1452.37 2254.74 1452.37 M2254.74 1448.67 Q2260.55 1448.67 2263.61 1453.27 Q2266.69 1457.86 2266.69 1466.61 Q2266.69 1475.33 2263.61 1479.94 Q2260.55 1484.52 2254.74 1484.52 Q2248.93 1484.52 2245.85 1479.94 Q2242.8 1475.33 2242.8 1466.61 Q2242.8 1457.86 2245.85 1453.27 Q2248.93 1448.67 2254.74 1448.67 Z" fill="#000000" fill-rule="evenodd" fill-opacity="1" /><path clip-path="url(#clip590)" d="M 0 0 M2274.9 1477.97 L2279.79 1477.97 L2279.79 1483.85 L2274.9 1483.85 L2274.9 1477.97 Z" fill="#000000" fill-rule="evenodd" fill-opacity="1" /><path clip-path="url(#clip590)" d="M 0 0 M2302.82 1453.37 L2291.01 1471.81 L2302.82 1471.81 L2302.82 1453.37 M2301.59 1449.29 L2307.47 1449.29 L2307.47 1471.81 L2312.4 1471.81 L2312.4 1475.7 L2307.47 1475.7 L2307.47 1483.85 L2302.82 1483.85 L2302.82 1475.7 L2287.22 1475.7 L2287.22 1471.19 L2301.59 1449.29 Z" fill="#000000" fill-rule="evenodd" fill-opacity="1" /><path clip-path="url(#clip590)" d="M 0 0 M2330.13 1467.44 Q2326.8 1467.44 2324.88 1469.22 Q2322.98 1471 2322.98 1474.13 Q2322.98 1477.25 2324.88 1479.04 Q2326.8 1480.82 2330.13 1480.82 Q2333.47 1480.82 2335.39 1479.04 Q2337.31 1477.23 2337.31 1474.13 Q2337.31 1471 2335.39 1469.22 Q2333.49 1467.44 2330.13 1467.44 M2325.46 1465.45 Q2322.45 1464.71 2320.76 1462.65 Q2319.09 1460.59 2319.09 1457.63 Q2319.09 1453.48 2322.03 1451.07 Q2325 1448.67 2330.13 1448.67 Q2335.3 1448.67 2338.24 1451.07 Q2341.18 1453.48 2341.18 1457.63 Q2341.18 1460.59 2339.49 1462.65 Q2337.82 1464.71 2334.83 1465.45 Q2338.21 1466.24 2340.09 1468.53 Q2341.99 1470.82 2341.99 1474.13 Q2341.99 1479.15 2338.91 1481.84 Q2335.85 1484.52 2330.13 1484.52 Q2324.42 1484.52 2321.34 1481.84 Q2318.28 1479.15 2318.28 1474.13 Q2318.28 1470.82 2320.18 1468.53 Q2322.08 1466.24 2325.46 1465.45 M2323.75 1458.06 Q2323.75 1460.75 2325.41 1462.25 Q2327.1 1463.76 2330.13 1463.76 Q2333.14 1463.76 2334.83 1462.25 Q2336.55 1460.75 2336.55 1458.06 Q2336.55 1455.38 2334.83 1453.88 Q2333.14 1452.37 2330.13 1452.37 Q2327.1 1452.37 2325.41 1453.88 Q2323.75 1455.38 2323.75 1458.06 Z" fill="#000000" fill-rule="evenodd" fill-opacity="1" /><path clip-path="url(#clip590)" d="M 0 0 M1276.79 1565.85 L1276.79 1581.6 L1270.91 1581.6 L1270.91 1532.62 Q1270.91 1518.1 1284.47 1518.1 Q1298.28 1518.1 1298.28 1530.36 Q1298.28 1539.08 1292.8 1542.26 Q1301.72 1545.13 1301.72 1553.63 Q1301.72 1568.71 1286.37 1568.71 Q1279.63 1568.71 1276.79 1565.85 M1276.79 1558.21 Q1280.33 1563.72 1286.6 1563.72 Q1295.76 1563.72 1295.76 1553.72 Q1295.76 1544.75 1281 1545.45 L1281 1540.03 Q1292.55 1540.03 1292.55 1529.85 Q1292.55 1522.88 1285.1 1522.88 Q1276.79 1522.88 1276.79 1532.81 L1276.79 1558.21 Z" fill="#000000" fill-rule="evenodd" fill-opacity="1" /><polyline clip-path="url(#clip592)" style="stroke:#000000; stroke-width:2; stroke-opacity:0.1; fill:none" points="
  219.866,1386.4 2352.76,1386.4 
  "/>
<polyline clip-path="url(#clip592)" style="stroke:#000000; stroke-width:2; stroke-opacity:0.1; fill:none" points="
  219.866,1107.19 2352.76,1107.19 
  "/>
<polyline clip-path="url(#clip592)" style="stroke:#000000; stroke-width:2; stroke-opacity:0.1; fill:none" points="
  219.866,827.988 2352.76,827.988 
  "/>
<polyline clip-path="url(#clip592)" style="stroke:#000000; stroke-width:2; stroke-opacity:0.1; fill:none" points="
  219.866,548.784 2352.76,548.784 
  "/>
<polyline clip-path="url(#clip592)" style="stroke:#000000; stroke-width:2; stroke-opacity:0.1; fill:none" points="
  219.866,269.58 2352.76,269.58 
  "/>
<polyline clip-path="url(#clip590)" style="stroke:#000000; stroke-width:4; stroke-opacity:1; fill:none" points="
  219.866,1423.18 219.866,123.472 
  "/>
<polyline clip-path="url(#clip590)" style="stroke:#000000; stroke-width:4; stroke-opacity:1; fill:none" points="
  219.866,1386.4 245.461,1386.4 
  "/>
<polyline clip-path="url(#clip590)" style="stroke:#000000; stroke-width:4; stroke-opacity:1; fill:none" points="
  219.866,1107.19 245.461,1107.19 
  "/>
<polyline clip-path="url(#clip590)" style="stroke:#000000; stroke-width:4; stroke-opacity:1; fill:none" points="
  219.866,827.988 245.461,827.988 
  "/>
<polyline clip-path="url(#clip590)" style="stroke:#000000; stroke-width:4; stroke-opacity:1; fill:none" points="
  219.866,548.784 245.461,548.784 
  "/>
<polyline clip-path="url(#clip590)" style="stroke:#000000; stroke-width:4; stroke-opacity:1; fill:none" points="
  219.866,269.58 245.461,269.58 
  "/>
<path clip-path="url(#clip590)" d="M 0 0 M126.691 1372.19 Q123.08 1372.19 121.251 1375.76 Q119.445 1379.3 119.445 1386.43 Q119.445 1393.54 121.251 1397.1 Q123.08 1400.64 126.691 1400.64 Q130.325 1400.64 132.13 1397.1 Q133.959 1393.54 133.959 1386.43 Q133.959 1379.3 132.13 1375.76 Q130.325 1372.19 126.691 1372.19 M126.691 1368.49 Q132.501 1368.49 135.556 1373.1 Q138.635 1377.68 138.635 1386.43 Q138.635 1395.16 135.556 1399.76 Q132.501 1404.35 126.691 1404.35 Q120.88 1404.35 117.802 1399.76 Q114.746 1395.16 114.746 1386.43 Q114.746 1377.68 117.802 1373.1 Q120.88 1368.49 126.691 1368.49 Z" fill="#000000" fill-rule="evenodd" fill-opacity="1" /><path clip-path="url(#clip590)" d="M 0 0 M146.853 1397.8 L151.737 1397.8 L151.737 1403.68 L146.853 1403.68 L146.853 1397.8 Z" fill="#000000" fill-rule="evenodd" fill-opacity="1" /><path clip-path="url(#clip590)" d="M 0 0 M171.922 1372.19 Q168.311 1372.19 166.482 1375.76 Q164.677 1379.3 164.677 1386.43 Q164.677 1393.54 166.482 1397.1 Q168.311 1400.64 171.922 1400.64 Q175.556 1400.64 177.362 1397.1 Q179.19 1393.54 179.19 1386.43 Q179.19 1379.3 177.362 1375.76 Q175.556 1372.19 171.922 1372.19 M171.922 1368.49 Q177.732 1368.49 180.788 1373.1 Q183.866 1377.68 183.866 1386.43 Q183.866 1395.16 180.788 1399.76 Q177.732 1404.35 171.922 1404.35 Q166.112 1404.35 163.033 1399.76 Q159.978 1395.16 159.978 1386.43 Q159.978 1377.68 163.033 1373.1 Q166.112 1368.49 171.922 1368.49 Z" fill="#000000" fill-rule="evenodd" fill-opacity="1" /><path clip-path="url(#clip590)" d="M 0 0 M128.288 1092.99 Q124.677 1092.99 122.848 1096.56 Q121.043 1100.1 121.043 1107.23 Q121.043 1114.33 122.848 1117.9 Q124.677 1121.44 128.288 1121.44 Q131.922 1121.44 133.728 1117.9 Q135.556 1114.33 135.556 1107.23 Q135.556 1100.1 133.728 1096.56 Q131.922 1092.99 128.288 1092.99 M128.288 1089.29 Q134.098 1089.29 137.154 1093.89 Q140.232 1098.48 140.232 1107.23 Q140.232 1115.95 137.154 1120.56 Q134.098 1125.14 128.288 1125.14 Q122.478 1125.14 119.399 1120.56 Q116.343 1115.95 116.343 1107.23 Q116.343 1098.48 119.399 1093.89 Q122.478 1089.29 128.288 1089.29 Z" fill="#000000" fill-rule="evenodd" fill-opacity="1" /><path clip-path="url(#clip590)" d="M 0 0 M148.45 1118.59 L153.334 1118.59 L153.334 1124.47 L148.45 1124.47 L148.45 1118.59 Z" fill="#000000" fill-rule="evenodd" fill-opacity="1" /><path clip-path="url(#clip590)" d="M 0 0 M167.547 1120.54 L183.866 1120.54 L183.866 1124.47 L161.922 1124.47 L161.922 1120.54 Q164.584 1117.78 169.167 1113.15 Q173.774 1108.5 174.954 1107.16 Q177.2 1104.63 178.079 1102.9 Q178.982 1101.14 178.982 1099.45 Q178.982 1096.69 177.038 1094.96 Q175.116 1093.22 172.014 1093.22 Q169.815 1093.22 167.362 1093.99 Q164.931 1094.75 162.153 1096.3 L162.153 1091.58 Q164.977 1090.44 167.431 1089.87 Q169.885 1089.29 171.922 1089.29 Q177.292 1089.29 180.487 1091.97 Q183.681 1094.66 183.681 1099.15 Q183.681 1101.28 182.871 1103.2 Q182.084 1105.1 179.977 1107.69 Q179.399 1108.36 176.297 1111.58 Q173.195 1114.77 167.547 1120.54 Z" fill="#000000" fill-rule="evenodd" fill-opacity="1" /><path clip-path="url(#clip590)" d="M 0 0 M126.205 813.786 Q122.593 813.786 120.765 817.351 Q118.959 820.893 118.959 828.022 Q118.959 835.129 120.765 838.694 Q122.593 842.235 126.205 842.235 Q129.839 842.235 131.644 838.694 Q133.473 835.129 133.473 828.022 Q133.473 820.893 131.644 817.351 Q129.839 813.786 126.205 813.786 M126.205 810.083 Q132.015 810.083 135.07 814.689 Q138.149 819.273 138.149 828.022 Q138.149 836.749 135.07 841.356 Q132.015 845.939 126.205 845.939 Q120.394 845.939 117.316 841.356 Q114.26 836.749 114.26 828.022 Q114.26 819.273 117.316 814.689 Q120.394 810.083 126.205 810.083 Z" fill="#000000" fill-rule="evenodd" fill-opacity="1" /><path clip-path="url(#clip590)" d="M 0 0 M146.366 839.388 L151.251 839.388 L151.251 845.268 L146.366 845.268 L146.366 839.388 Z" fill="#000000" fill-rule="evenodd" fill-opacity="1" /><path clip-path="url(#clip590)" d="M 0 0 M174.283 814.782 L162.477 833.231 L174.283 833.231 L174.283 814.782 M173.056 810.708 L178.936 810.708 L178.936 833.231 L183.866 833.231 L183.866 837.12 L178.936 837.12 L178.936 845.268 L174.283 845.268 L174.283 837.12 L158.681 837.12 L158.681 832.606 L173.056 810.708 Z" fill="#000000" fill-rule="evenodd" fill-opacity="1" /><path clip-path="url(#clip590)" d="M 0 0 M126.529 534.582 Q122.918 534.582 121.089 538.147 Q119.283 541.689 119.283 548.819 Q119.283 555.925 121.089 559.49 Q122.918 563.031 126.529 563.031 Q130.163 563.031 131.968 559.49 Q133.797 555.925 133.797 548.819 Q133.797 541.689 131.968 538.147 Q130.163 534.582 126.529 534.582 M126.529 530.879 Q132.339 530.879 135.394 535.485 Q138.473 540.069 138.473 548.819 Q138.473 557.545 135.394 562.152 Q132.339 566.735 126.529 566.735 Q120.718 566.735 117.64 562.152 Q114.584 557.545 114.584 548.819 Q114.584 540.069 117.64 535.485 Q120.718 530.879 126.529 530.879 Z" fill="#000000" fill-rule="evenodd" fill-opacity="1" /><path clip-path="url(#clip590)" d="M 0 0 M146.691 560.184 L151.575 560.184 L151.575 566.064 L146.691 566.064 L146.691 560.184 Z" fill="#000000" fill-rule="evenodd" fill-opacity="1" /><path clip-path="url(#clip590)" d="M 0 0 M172.339 546.92 Q169.19 546.92 167.339 549.073 Q165.51 551.226 165.51 554.976 Q165.51 558.703 167.339 560.879 Q169.19 563.031 172.339 563.031 Q175.487 563.031 177.315 560.879 Q179.167 558.703 179.167 554.976 Q179.167 551.226 177.315 549.073 Q175.487 546.92 172.339 546.92 M181.621 532.268 L181.621 536.527 Q179.862 535.694 178.056 535.254 Q176.274 534.814 174.514 534.814 Q169.885 534.814 167.431 537.939 Q165.001 541.064 164.653 547.383 Q166.019 545.369 168.079 544.305 Q170.139 543.217 172.616 543.217 Q177.825 543.217 180.834 546.388 Q183.866 549.536 183.866 554.976 Q183.866 560.3 180.718 563.517 Q177.57 566.735 172.339 566.735 Q166.343 566.735 163.172 562.152 Q160.001 557.545 160.001 548.819 Q160.001 540.624 163.89 535.763 Q167.778 530.879 174.329 530.879 Q176.089 530.879 177.871 531.226 Q179.676 531.573 181.621 532.268 Z" fill="#000000" fill-rule="evenodd" fill-opacity="1" /><path clip-path="url(#clip590)" d="M 0 0 M126.783 255.379 Q123.172 255.379 121.343 258.943 Q119.538 262.485 119.538 269.615 Q119.538 276.721 121.343 280.286 Q123.172 283.827 126.783 283.827 Q130.417 283.827 132.223 280.286 Q134.052 276.721 134.052 269.615 Q134.052 262.485 132.223 258.943 Q130.417 255.379 126.783 255.379 M126.783 251.675 Q132.593 251.675 135.649 256.281 Q138.728 260.865 138.728 269.615 Q138.728 278.341 135.649 282.948 Q132.593 287.531 126.783 287.531 Q120.973 287.531 117.894 282.948 Q114.839 278.341 114.839 269.615 Q114.839 260.865 117.894 256.281 Q120.973 251.675 126.783 251.675 Z" fill="#000000" fill-rule="evenodd" fill-opacity="1" /><path clip-path="url(#clip590)" d="M 0 0 M146.945 280.98 L151.829 280.98 L151.829 286.86 L146.945 286.86 L146.945 280.98 Z" fill="#000000" fill-rule="evenodd" fill-opacity="1" /><path clip-path="url(#clip590)" d="M 0 0 M172.014 270.448 Q168.681 270.448 166.76 272.23 Q164.862 274.013 164.862 277.138 Q164.862 280.263 166.76 282.045 Q168.681 283.827 172.014 283.827 Q175.348 283.827 177.269 282.045 Q179.19 280.239 179.19 277.138 Q179.19 274.013 177.269 272.23 Q175.371 270.448 172.014 270.448 M167.339 268.457 Q164.329 267.716 162.64 265.656 Q160.973 263.596 160.973 260.633 Q160.973 256.49 163.913 254.082 Q166.876 251.675 172.014 251.675 Q177.176 251.675 180.116 254.082 Q183.056 256.49 183.056 260.633 Q183.056 263.596 181.366 265.656 Q179.7 267.716 176.714 268.457 Q180.093 269.244 181.968 271.536 Q183.866 273.827 183.866 277.138 Q183.866 282.161 180.788 284.846 Q177.732 287.531 172.014 287.531 Q166.297 287.531 163.218 284.846 Q160.163 282.161 160.163 277.138 Q160.163 273.827 162.061 271.536 Q163.959 269.244 167.339 268.457 M165.626 261.073 Q165.626 263.758 167.292 265.263 Q168.982 266.767 172.014 266.767 Q175.024 266.767 176.714 265.263 Q178.426 263.758 178.426 261.073 Q178.426 258.388 176.714 256.883 Q175.024 255.379 172.014 255.379 Q168.982 255.379 167.292 256.883 Q165.626 258.388 165.626 261.073 Z" fill="#000000" fill-rule="evenodd" fill-opacity="1" /><path clip-path="url(#clip590)" d="M 0 0 M35.1993 811.839 Q31.2526 809.642 29.3747 806.587 Q27.4968 803.531 27.4968 799.394 Q27.4968 793.824 31.4117 790.8 Q35.2948 787.776 42.4881 787.776 L64.0042 787.776 L64.0042 793.664 L42.679 793.664 Q37.5546 793.664 35.072 795.479 Q32.5894 797.293 32.5894 801.017 Q32.5894 805.568 35.6131 808.21 Q38.6368 810.852 43.8567 810.852 L64.0042 810.852 L64.0042 816.74 L42.679 816.74 Q37.5228 816.74 35.072 818.554 Q32.5894 820.369 32.5894 824.156 Q32.5894 828.644 35.6449 831.286 Q38.6686 833.928 43.8567 833.928 L64.0042 833.928 L64.0042 839.816 L28.3562 839.816 L28.3562 833.928 L33.8944 833.928 Q30.616 831.922 29.0564 829.121 Q27.4968 826.32 27.4968 822.469 Q27.4968 818.586 29.4702 815.881 Q31.4436 813.143 35.1993 811.839 Z" fill="#000000" fill-rule="evenodd" fill-opacity="1" /><path clip-path="url(#clip590)" d="M 0 0 M46.0847 759.894 Q46.0847 766.992 47.7079 769.729 Q49.3312 772.467 53.2461 772.467 Q56.3653 772.467 58.2114 770.43 Q60.0256 768.361 60.0256 764.828 Q60.0256 759.958 56.5881 757.03 Q53.1188 754.07 47.3897 754.07 L46.0847 754.07 L46.0847 759.894 M43.6657 748.213 L64.0042 748.213 L64.0042 754.07 L58.5933 754.07 Q61.8398 756.075 63.3994 759.067 Q64.9272 762.059 64.9272 766.387 Q64.9272 771.862 61.8716 775.108 Q58.7843 778.323 53.6281 778.323 Q47.6125 778.323 44.5569 774.313 Q41.5014 770.27 41.5014 762.281 L41.5014 754.07 L40.9285 754.07 Q36.8862 754.07 34.6901 756.743 Q32.4621 759.385 32.4621 764.191 Q32.4621 767.247 33.1941 770.143 Q33.9262 773.04 35.3903 775.713 L29.9795 775.713 Q28.7381 772.498 28.1334 769.475 Q27.4968 766.451 27.4968 763.586 Q27.4968 755.852 31.5072 752.033 Q35.5176 748.213 43.6657 748.213 Z" fill="#000000" fill-rule="evenodd" fill-opacity="1" /><path clip-path="url(#clip590)" d="M 0 0 M45.7664 712.693 Q39.4007 712.693 35.8996 715.334 Q32.3984 717.944 32.3984 722.687 Q32.3984 727.397 35.8996 730.039 Q39.4007 732.649 45.7664 732.649 Q52.1003 732.649 55.6014 730.039 Q59.1026 727.397 59.1026 722.687 Q59.1026 717.944 55.6014 715.334 Q52.1003 712.693 45.7664 712.693 M59.58 706.836 Q68.683 706.836 73.1071 710.878 Q77.5631 714.921 77.5631 723.26 Q77.5631 726.347 77.0857 729.084 Q76.6401 731.822 75.6852 734.4 L69.9879 734.4 Q71.3884 731.822 72.0568 729.307 Q72.7252 726.793 72.7252 724.183 Q72.7252 718.422 69.7015 715.557 Q66.7096 712.693 60.6303 712.693 L57.7339 712.693 Q60.885 714.507 62.4446 717.34 Q64.0042 720.172 64.0042 724.119 Q64.0042 730.676 59.0071 734.686 Q54.01 738.697 45.7664 738.697 Q37.491 738.697 32.4939 734.686 Q27.4968 730.676 27.4968 724.119 Q27.4968 720.172 29.0564 717.34 Q30.616 714.507 33.7671 712.693 L28.3562 712.693 L28.3562 706.836 L59.58 706.836 Z" fill="#000000" fill-rule="evenodd" fill-opacity="1" /><path clip-path="url(#clip590)" d="M 0 0 M1030.96 35.9153 Q1033.76 30.8922 1037.65 28.5022 Q1041.54 26.1121 1046.8 26.1121 Q1053.89 26.1121 1057.74 31.0947 Q1061.59 36.0368 1061.59 45.1919 L1061.59 72.576 L1054.09 72.576 L1054.09 45.4349 Q1054.09 38.913 1051.78 35.7533 Q1049.47 32.5936 1044.74 32.5936 Q1038.94 32.5936 1035.58 36.4419 Q1032.22 40.2903 1032.22 46.9338 L1032.22 72.576 L1024.72 72.576 L1024.72 45.4349 Q1024.72 38.8725 1022.41 35.7533 Q1020.11 32.5936 1015.29 32.5936 Q1009.57 32.5936 1006.21 36.4824 Q1002.85 40.3308 1002.85 46.9338 L1002.85 72.576 L995.355 72.576 L995.355 27.2059 L1002.85 27.2059 L1002.85 34.2544 Q1005.4 30.082 1008.97 28.0971 Q1012.53 26.1121 1017.43 26.1121 Q1022.37 26.1121 1025.82 28.6237 Q1029.3 31.1352 1030.96 35.9153 Z" fill="#000000" fill-rule="evenodd" fill-opacity="1" /><path clip-path="url(#clip590)" d="M 0 0 M1097.07 49.7694 Q1088.04 49.7694 1084.56 51.8354 Q1081.07 53.9013 1081.07 58.8839 Q1081.07 62.8538 1083.66 65.2034 Q1086.3 67.5124 1090.79 67.5124 Q1096.99 67.5124 1100.72 63.1374 Q1104.49 58.7219 1104.49 51.4303 L1104.49 49.7694 L1097.07 49.7694 M1111.94 46.6907 L1111.94 72.576 L1104.49 72.576 L1104.49 65.6895 Q1101.93 69.8214 1098.13 71.8063 Q1094.32 73.7508 1088.81 73.7508 Q1081.84 73.7508 1077.71 69.8619 Q1073.62 65.9325 1073.62 59.3701 Q1073.62 51.7138 1078.72 47.825 Q1083.87 43.9361 1094.03 43.9361 L1104.49 43.9361 L1104.49 43.2069 Q1104.49 38.0623 1101.08 35.2672 Q1097.72 32.4315 1091.6 32.4315 Q1087.72 32.4315 1084.03 33.3632 Q1080.34 34.295 1076.94 36.1584 L1076.94 29.2718 Q1081.03 27.692 1084.88 26.9223 Q1088.73 26.1121 1092.37 26.1121 Q1102.22 26.1121 1107.08 31.2163 Q1111.94 36.3204 1111.94 46.6907 Z" fill="#000000" fill-rule="evenodd" fill-opacity="1" /><path clip-path="url(#clip590)" d="M 0 0 M1157.15 49.3643 Q1157.15 41.2625 1153.79 36.8065 Q1150.46 32.3505 1144.43 32.3505 Q1138.43 32.3505 1135.07 36.8065 Q1131.75 41.2625 1131.75 49.3643 Q1131.75 57.4256 1135.07 61.8816 Q1138.43 66.3376 1144.43 66.3376 Q1150.46 66.3376 1153.79 61.8816 Q1157.15 57.4256 1157.15 49.3643 M1164.6 66.9452 Q1164.6 78.5308 1159.46 84.1616 Q1154.31 89.8329 1143.7 89.8329 Q1139.77 89.8329 1136.29 89.2252 Q1132.8 88.6581 1129.52 87.4428 L1129.52 80.1917 Q1132.8 81.9741 1136 82.8248 Q1139.2 83.6755 1142.52 83.6755 Q1149.86 83.6755 1153.5 79.8271 Q1157.15 76.0193 1157.15 68.282 L1157.15 64.5957 Q1154.84 68.6061 1151.23 70.5911 Q1147.63 72.576 1142.61 72.576 Q1134.26 72.576 1129.16 66.2161 Q1124.05 59.8562 1124.05 49.3643 Q1124.05 38.832 1129.16 32.472 Q1134.26 26.1121 1142.61 26.1121 Q1147.63 26.1121 1151.23 28.0971 Q1154.84 30.082 1157.15 34.0924 L1157.15 27.2059 L1164.6 27.2059 L1164.6 66.9452 Z" fill="#000000" fill-rule="evenodd" fill-opacity="1" /><path clip-path="url(#clip590)" d="M 0 0 M1217.67 45.1919 L1217.67 72.576 L1210.21 72.576 L1210.21 45.4349 Q1210.21 38.994 1207.7 35.7938 Q1205.19 32.5936 1200.17 32.5936 Q1194.13 32.5936 1190.65 36.4419 Q1187.17 40.2903 1187.17 46.9338 L1187.17 72.576 L1179.67 72.576 L1179.67 27.2059 L1187.17 27.2059 L1187.17 34.2544 Q1189.84 30.163 1193.44 28.1376 Q1197.09 26.1121 1201.83 26.1121 Q1209.65 26.1121 1213.66 30.9732 Q1217.67 35.7938 1217.67 45.1919 Z" fill="#000000" fill-rule="evenodd" fill-opacity="1" /><path clip-path="url(#clip590)" d="M 0 0 M1271.34 48.0275 L1271.34 51.6733 L1237.07 51.6733 Q1237.56 59.3701 1241.69 63.421 Q1245.86 67.4314 1253.28 67.4314 Q1257.57 67.4314 1261.58 66.3781 Q1265.63 65.3249 1269.6 63.2184 L1269.6 70.267 Q1265.59 71.9684 1261.38 72.8596 Q1257.16 73.7508 1252.83 73.7508 Q1241.97 73.7508 1235.61 67.4314 Q1229.29 61.1119 1229.29 50.3365 Q1229.29 39.1965 1235.29 32.6746 Q1241.33 26.1121 1251.53 26.1121 Q1260.69 26.1121 1266 32.0264 Q1271.34 37.9003 1271.34 48.0275 M1263.89 45.84 Q1263.81 39.7232 1260.45 36.0774 Q1257.12 32.4315 1251.62 32.4315 Q1245.38 32.4315 1241.61 35.9558 Q1237.88 39.4801 1237.32 45.8805 L1263.89 45.84 Z" fill="#000000" fill-rule="evenodd" fill-opacity="1" /><path clip-path="url(#clip590)" d="M 0 0 M1290.95 14.324 L1290.95 27.2059 L1306.3 27.2059 L1306.3 32.9987 L1290.95 32.9987 L1290.95 57.6282 Q1290.95 63.1779 1292.45 64.7578 Q1293.99 66.3376 1298.65 66.3376 L1306.3 66.3376 L1306.3 72.576 L1298.65 72.576 Q1290.02 72.576 1286.74 69.3758 Q1283.46 66.1351 1283.46 57.6282 L1283.46 32.9987 L1277.99 32.9987 L1277.99 27.2059 L1283.46 27.2059 L1283.46 14.324 L1290.95 14.324 Z" fill="#000000" fill-rule="evenodd" fill-opacity="1" /><path clip-path="url(#clip590)" d="M 0 0 M1316.11 27.2059 L1323.56 27.2059 L1323.56 72.576 L1316.11 72.576 L1316.11 27.2059 M1316.11 9.54393 L1323.56 9.54393 L1323.56 18.9825 L1316.11 18.9825 L1316.11 9.54393 Z" fill="#000000" fill-rule="evenodd" fill-opacity="1" /><path clip-path="url(#clip590)" d="M 0 0 M1368.08 28.5427 L1368.08 35.5912 Q1364.92 33.9709 1361.52 33.1607 Q1358.11 32.3505 1354.47 32.3505 Q1348.92 32.3505 1346.12 34.0519 Q1343.37 35.7533 1343.37 39.156 Q1343.37 41.7486 1345.35 43.2475 Q1347.34 44.7058 1353.33 46.0426 L1355.89 46.6097 Q1363.83 48.3111 1367.15 51.4303 Q1370.51 54.509 1370.51 60.0587 Q1370.51 66.3781 1365.49 70.0644 Q1360.5 73.7508 1351.75 73.7508 Q1348.11 73.7508 1344.14 73.0216 Q1340.21 72.3329 1335.83 70.9151 L1335.83 63.2184 Q1339.97 65.3654 1343.98 66.4591 Q1347.99 67.5124 1351.92 67.5124 Q1357.18 67.5124 1360.02 65.73 Q1362.85 63.9071 1362.85 60.6258 Q1362.85 57.5877 1360.79 55.9673 Q1358.76 54.3469 1351.83 52.8481 L1349.24 52.2405 Q1342.31 50.7821 1339.24 47.7845 Q1336.16 44.7463 1336.16 39.4801 Q1336.16 33.0797 1340.69 29.5959 Q1345.23 26.1121 1353.58 26.1121 Q1357.71 26.1121 1361.35 26.7198 Q1365 27.3274 1368.08 28.5427 Z" fill="#000000" fill-rule="evenodd" fill-opacity="1" /><path clip-path="url(#clip590)" d="M 0 0 M1403 49.7694 Q1393.96 49.7694 1390.48 51.8354 Q1387 53.9013 1387 58.8839 Q1387 62.8538 1389.59 65.2034 Q1392.22 67.5124 1396.72 67.5124 Q1402.92 67.5124 1406.64 63.1374 Q1410.41 58.7219 1410.41 51.4303 L1410.41 49.7694 L1403 49.7694 M1417.86 46.6907 L1417.86 72.576 L1410.41 72.576 L1410.41 65.6895 Q1407.86 69.8214 1404.05 71.8063 Q1400.24 73.7508 1394.73 73.7508 Q1387.77 73.7508 1383.63 69.8619 Q1379.54 65.9325 1379.54 59.3701 Q1379.54 51.7138 1384.65 47.825 Q1389.79 43.9361 1399.96 43.9361 L1410.41 43.9361 L1410.41 43.2069 Q1410.41 38.0623 1407.01 35.2672 Q1403.65 32.4315 1397.53 32.4315 Q1393.64 32.4315 1389.95 33.3632 Q1386.27 34.295 1382.86 36.1584 L1382.86 29.2718 Q1386.96 27.692 1390.8 26.9223 Q1394.65 26.1121 1398.3 26.1121 Q1408.14 26.1121 1413 31.2163 Q1417.86 36.3204 1417.86 46.6907 Z" fill="#000000" fill-rule="evenodd" fill-opacity="1" /><path clip-path="url(#clip590)" d="M 0 0 M1440.59 14.324 L1440.59 27.2059 L1455.94 27.2059 L1455.94 32.9987 L1440.59 32.9987 L1440.59 57.6282 Q1440.59 63.1779 1442.09 64.7578 Q1443.63 66.3376 1448.29 66.3376 L1455.94 66.3376 L1455.94 72.576 L1448.29 72.576 Q1439.66 72.576 1436.38 69.3758 Q1433.1 66.1351 1433.1 57.6282 L1433.1 32.9987 L1427.63 32.9987 L1427.63 27.2059 L1433.1 27.2059 L1433.1 14.324 L1440.59 14.324 Z" fill="#000000" fill-rule="evenodd" fill-opacity="1" /><path clip-path="url(#clip590)" d="M 0 0 M1465.75 27.2059 L1473.2 27.2059 L1473.2 72.576 L1465.75 72.576 L1465.75 27.2059 M1465.75 9.54393 L1473.2 9.54393 L1473.2 18.9825 L1465.75 18.9825 L1465.75 9.54393 Z" fill="#000000" fill-rule="evenodd" fill-opacity="1" /><path clip-path="url(#clip590)" d="M 0 0 M1506.38 32.4315 Q1500.38 32.4315 1496.9 37.1306 Q1493.41 41.7891 1493.41 49.9314 Q1493.41 58.0738 1496.86 62.7728 Q1500.34 67.4314 1506.38 67.4314 Q1512.33 67.4314 1515.82 62.7323 Q1519.3 58.0333 1519.3 49.9314 Q1519.3 41.8701 1515.82 37.1711 Q1512.33 32.4315 1506.38 32.4315 M1506.38 26.1121 Q1516.1 26.1121 1521.65 32.4315 Q1527.2 38.7509 1527.2 49.9314 Q1527.2 61.0714 1521.65 67.4314 Q1516.1 73.7508 1506.38 73.7508 Q1496.61 73.7508 1491.06 67.4314 Q1485.55 61.0714 1485.55 49.9314 Q1485.55 38.7509 1491.06 32.4315 Q1496.61 26.1121 1506.38 26.1121 Z" fill="#000000" fill-rule="evenodd" fill-opacity="1" /><path clip-path="url(#clip590)" d="M 0 0 M1577.27 45.1919 L1577.27 72.576 L1569.81 72.576 L1569.81 45.4349 Q1569.81 38.994 1567.3 35.7938 Q1564.79 32.5936 1559.77 32.5936 Q1553.73 32.5936 1550.25 36.4419 Q1546.76 40.2903 1546.76 46.9338 L1546.76 72.576 L1539.27 72.576 L1539.27 27.2059 L1546.76 27.2059 L1546.76 34.2544 Q1549.44 30.163 1553.04 28.1376 Q1556.69 26.1121 1561.43 26.1121 Q1569.25 26.1121 1573.26 30.9732 Q1577.27 35.7938 1577.27 45.1919 Z" fill="#000000" fill-rule="evenodd" fill-opacity="1" /><circle clip-path="url(#clip592)" cx="280.231" cy="1386.39" r="14" fill="#009af9" fill-rule="evenodd" fill-opacity="1" stroke="#000000" stroke-opacity="1" stroke-width="3.2"/>
<circle clip-path="url(#clip592)" cx="352.094" cy="1386.4" r="14" fill="#009af9" fill-rule="evenodd" fill-opacity="1" stroke="#000000" stroke-opacity="1" stroke-width="3.2"/>
<circle clip-path="url(#clip592)" cx="423.957" cy="1386.4" r="14" fill="#009af9" fill-rule="evenodd" fill-opacity="1" stroke="#000000" stroke-opacity="1" stroke-width="3.2"/>
<circle clip-path="url(#clip592)" cx="495.82" cy="1386.39" r="14" fill="#009af9" fill-rule="evenodd" fill-opacity="1" stroke="#000000" stroke-opacity="1" stroke-width="3.2"/>
<circle clip-path="url(#clip592)" cx="567.683" cy="1386.39" r="14" fill="#009af9" fill-rule="evenodd" fill-opacity="1" stroke="#000000" stroke-opacity="1" stroke-width="3.2"/>
<circle clip-path="url(#clip592)" cx="639.545" cy="1386.34" r="14" fill="#009af9" fill-rule="evenodd" fill-opacity="1" stroke="#000000" stroke-opacity="1" stroke-width="3.2"/>
<circle clip-path="url(#clip592)" cx="711.408" cy="1386.09" r="14" fill="#009af9" fill-rule="evenodd" fill-opacity="1" stroke="#000000" stroke-opacity="1" stroke-width="3.2"/>
<circle clip-path="url(#clip592)" cx="783.271" cy="1384.42" r="14" fill="#009af9" fill-rule="evenodd" fill-opacity="1" stroke="#000000" stroke-opacity="1" stroke-width="3.2"/>
<circle clip-path="url(#clip592)" cx="855.134" cy="1371.13" r="14" fill="#009af9" fill-rule="evenodd" fill-opacity="1" stroke="#000000" stroke-opacity="1" stroke-width="3.2"/>
<circle clip-path="url(#clip592)" cx="926.997" cy="1170.48" r="14" fill="#009af9" fill-rule="evenodd" fill-opacity="1" stroke="#000000" stroke-opacity="1" stroke-width="3.2"/>
<circle clip-path="url(#clip592)" cx="998.86" cy="617.253" r="14" fill="#009af9" fill-rule="evenodd" fill-opacity="1" stroke="#000000" stroke-opacity="1" stroke-width="3.2"/>
<circle clip-path="url(#clip592)" cx="1070.72" cy="520.988" r="14" fill="#009af9" fill-rule="evenodd" fill-opacity="1" stroke="#000000" stroke-opacity="1" stroke-width="3.2"/>
<circle clip-path="url(#clip592)" cx="1142.59" cy="458.405" r="14" fill="#009af9" fill-rule="evenodd" fill-opacity="1" stroke="#000000" stroke-opacity="1" stroke-width="3.2"/>
<circle clip-path="url(#clip592)" cx="1214.45" cy="411.157" r="14" fill="#009af9" fill-rule="evenodd" fill-opacity="1" stroke="#000000" stroke-opacity="1" stroke-width="3.2"/>
<circle clip-path="url(#clip592)" cx="1286.31" cy="373.64" r="14" fill="#009af9" fill-rule="evenodd" fill-opacity="1" stroke="#000000" stroke-opacity="1" stroke-width="3.2"/>
<circle clip-path="url(#clip592)" cx="1358.17" cy="342.807" r="14" fill="#009af9" fill-rule="evenodd" fill-opacity="1" stroke="#000000" stroke-opacity="1" stroke-width="3.2"/>
<circle clip-path="url(#clip592)" cx="1430.04" cy="316.826" r="14" fill="#009af9" fill-rule="evenodd" fill-opacity="1" stroke="#000000" stroke-opacity="1" stroke-width="3.2"/>
<circle clip-path="url(#clip592)" cx="1501.9" cy="294.509" r="14" fill="#009af9" fill-rule="evenodd" fill-opacity="1" stroke="#000000" stroke-opacity="1" stroke-width="3.2"/>
<circle clip-path="url(#clip592)" cx="1573.76" cy="275.048" r="14" fill="#009af9" fill-rule="evenodd" fill-opacity="1" stroke="#000000" stroke-opacity="1" stroke-width="3.2"/>
<circle clip-path="url(#clip592)" cx="1645.63" cy="257.871" r="14" fill="#009af9" fill-rule="evenodd" fill-opacity="1" stroke="#000000" stroke-opacity="1" stroke-width="3.2"/>
<circle clip-path="url(#clip592)" cx="1717.49" cy="242.555" r="14" fill="#009af9" fill-rule="evenodd" fill-opacity="1" stroke="#000000" stroke-opacity="1" stroke-width="3.2"/>
<circle clip-path="url(#clip592)" cx="1789.35" cy="228.784" r="14" fill="#009af9" fill-rule="evenodd" fill-opacity="1" stroke="#000000" stroke-opacity="1" stroke-width="3.2"/>
<circle clip-path="url(#clip592)" cx="1861.21" cy="216.313" r="14" fill="#009af9" fill-rule="evenodd" fill-opacity="1" stroke="#000000" stroke-opacity="1" stroke-width="3.2"/>
<circle clip-path="url(#clip592)" cx="1933.08" cy="204.95" r="14" fill="#009af9" fill-rule="evenodd" fill-opacity="1" stroke="#000000" stroke-opacity="1" stroke-width="3.2"/>
<circle clip-path="url(#clip592)" cx="2004.94" cy="194.541" r="14" fill="#009af9" fill-rule="evenodd" fill-opacity="1" stroke="#000000" stroke-opacity="1" stroke-width="3.2"/>
<circle clip-path="url(#clip592)" cx="2076.8" cy="184.961" r="14" fill="#009af9" fill-rule="evenodd" fill-opacity="1" stroke="#000000" stroke-opacity="1" stroke-width="3.2"/>
<circle clip-path="url(#clip592)" cx="2148.67" cy="176.109" r="14" fill="#009af9" fill-rule="evenodd" fill-opacity="1" stroke="#000000" stroke-opacity="1" stroke-width="3.2"/>
<circle clip-path="url(#clip592)" cx="2220.53" cy="167.897" r="14" fill="#009af9" fill-rule="evenodd" fill-opacity="1" stroke="#000000" stroke-opacity="1" stroke-width="3.2"/>
<circle clip-path="url(#clip592)" cx="2292.39" cy="160.256" r="14" fill="#009af9" fill-rule="evenodd" fill-opacity="1" stroke="#000000" stroke-opacity="1" stroke-width="3.2"/>
<circle clip-path="url(#clip592)" cx="280.231" cy="1386.4" r="14" fill="#e26f46" fill-rule="evenodd" fill-opacity="1" stroke="#000000" stroke-opacity="1" stroke-width="3.2"/>
<circle clip-path="url(#clip592)" cx="352.094" cy="1386.4" r="14" fill="#e26f46" fill-rule="evenodd" fill-opacity="1" stroke="#000000" stroke-opacity="1" stroke-width="3.2"/>
<circle clip-path="url(#clip592)" cx="423.957" cy="1386.4" r="14" fill="#e26f46" fill-rule="evenodd" fill-opacity="1" stroke="#000000" stroke-opacity="1" stroke-width="3.2"/>
<circle clip-path="url(#clip592)" cx="495.82" cy="1386.4" r="14" fill="#e26f46" fill-rule="evenodd" fill-opacity="1" stroke="#000000" stroke-opacity="1" stroke-width="3.2"/>
<circle clip-path="url(#clip592)" cx="567.683" cy="1386.4" r="14" fill="#e26f46" fill-rule="evenodd" fill-opacity="1" stroke="#000000" stroke-opacity="1" stroke-width="3.2"/>
<circle clip-path="url(#clip592)" cx="639.545" cy="1386.4" r="14" fill="#e26f46" fill-rule="evenodd" fill-opacity="1" stroke="#000000" stroke-opacity="1" stroke-width="3.2"/>
<circle clip-path="url(#clip592)" cx="711.408" cy="1386.4" r="14" fill="#e26f46" fill-rule="evenodd" fill-opacity="1" stroke="#000000" stroke-opacity="1" stroke-width="3.2"/>
<circle clip-path="url(#clip592)" cx="783.271" cy="1386.4" r="14" fill="#e26f46" fill-rule="evenodd" fill-opacity="1" stroke="#000000" stroke-opacity="1" stroke-width="3.2"/>
<circle clip-path="url(#clip592)" cx="855.134" cy="1386.4" r="14" fill="#e26f46" fill-rule="evenodd" fill-opacity="1" stroke="#000000" stroke-opacity="1" stroke-width="3.2"/>
<circle clip-path="url(#clip592)" cx="926.997" cy="1386.4" r="14" fill="#e26f46" fill-rule="evenodd" fill-opacity="1" stroke="#000000" stroke-opacity="1" stroke-width="3.2"/>
<circle clip-path="url(#clip592)" cx="998.86" cy="1386.39" r="14" fill="#e26f46" fill-rule="evenodd" fill-opacity="1" stroke="#000000" stroke-opacity="1" stroke-width="3.2"/>
<circle clip-path="url(#clip592)" cx="1070.72" cy="1383.05" r="14" fill="#e26f46" fill-rule="evenodd" fill-opacity="1" stroke="#000000" stroke-opacity="1" stroke-width="3.2"/>
<circle clip-path="url(#clip592)" cx="1142.59" cy="680.247" r="14" fill="#e26f46" fill-rule="evenodd" fill-opacity="1" stroke="#000000" stroke-opacity="1" stroke-width="3.2"/>
<circle clip-path="url(#clip592)" cx="1214.45" cy="500.824" r="14" fill="#e26f46" fill-rule="evenodd" fill-opacity="1" stroke="#000000" stroke-opacity="1" stroke-width="3.2"/>
<circle clip-path="url(#clip592)" cx="1286.31" cy="424.732" r="14" fill="#e26f46" fill-rule="evenodd" fill-opacity="1" stroke="#000000" stroke-opacity="1" stroke-width="3.2"/>
<circle clip-path="url(#clip592)" cx="1358.17" cy="375.226" r="14" fill="#e26f46" fill-rule="evenodd" fill-opacity="1" stroke="#000000" stroke-opacity="1" stroke-width="3.2"/>
<circle clip-path="url(#clip592)" cx="1430.04" cy="338.74" r="14" fill="#e26f46" fill-rule="evenodd" fill-opacity="1" stroke="#000000" stroke-opacity="1" stroke-width="3.2"/>
<circle clip-path="url(#clip592)" cx="1501.9" cy="309.972" r="14" fill="#e26f46" fill-rule="evenodd" fill-opacity="1" stroke="#000000" stroke-opacity="1" stroke-width="3.2"/>
<circle clip-path="url(#clip592)" cx="1573.76" cy="286.308" r="14" fill="#e26f46" fill-rule="evenodd" fill-opacity="1" stroke="#000000" stroke-opacity="1" stroke-width="3.2"/>
<circle clip-path="url(#clip592)" cx="1645.63" cy="266.272" r="14" fill="#e26f46" fill-rule="evenodd" fill-opacity="1" stroke="#000000" stroke-opacity="1" stroke-width="3.2"/>
<circle clip-path="url(#clip592)" cx="1717.49" cy="248.946" r="14" fill="#e26f46" fill-rule="evenodd" fill-opacity="1" stroke="#000000" stroke-opacity="1" stroke-width="3.2"/>
<circle clip-path="url(#clip592)" cx="1789.35" cy="233.724" r="14" fill="#e26f46" fill-rule="evenodd" fill-opacity="1" stroke="#000000" stroke-opacity="1" stroke-width="3.2"/>
<circle clip-path="url(#clip592)" cx="1861.21" cy="220.183" r="14" fill="#e26f46" fill-rule="evenodd" fill-opacity="1" stroke="#000000" stroke-opacity="1" stroke-width="3.2"/>
<circle clip-path="url(#clip592)" cx="1933.08" cy="208.017" r="14" fill="#e26f46" fill-rule="evenodd" fill-opacity="1" stroke="#000000" stroke-opacity="1" stroke-width="3.2"/>
<circle clip-path="url(#clip592)" cx="2004.94" cy="196.995" r="14" fill="#e26f46" fill-rule="evenodd" fill-opacity="1" stroke="#000000" stroke-opacity="1" stroke-width="3.2"/>
<circle clip-path="url(#clip592)" cx="2076.8" cy="186.943" r="14" fill="#e26f46" fill-rule="evenodd" fill-opacity="1" stroke="#000000" stroke-opacity="1" stroke-width="3.2"/>
<circle clip-path="url(#clip592)" cx="2148.67" cy="177.72" r="14" fill="#e26f46" fill-rule="evenodd" fill-opacity="1" stroke="#000000" stroke-opacity="1" stroke-width="3.2"/>
<circle clip-path="url(#clip592)" cx="2220.53" cy="169.217" r="14" fill="#e26f46" fill-rule="evenodd" fill-opacity="1" stroke="#000000" stroke-opacity="1" stroke-width="3.2"/>
<circle clip-path="url(#clip592)" cx="2292.39" cy="161.344" r="14" fill="#e26f46" fill-rule="evenodd" fill-opacity="1" stroke="#000000" stroke-opacity="1" stroke-width="3.2"/>
<circle clip-path="url(#clip592)" cx="280.231" cy="1386.4" r="14" fill="#3da44d" fill-rule="evenodd" fill-opacity="1" stroke="#000000" stroke-opacity="1" stroke-width="3.2"/>
<circle clip-path="url(#clip592)" cx="352.094" cy="1386.4" r="14" fill="#3da44d" fill-rule="evenodd" fill-opacity="1" stroke="#000000" stroke-opacity="1" stroke-width="3.2"/>
<circle clip-path="url(#clip592)" cx="423.957" cy="1386.4" r="14" fill="#3da44d" fill-rule="evenodd" fill-opacity="1" stroke="#000000" stroke-opacity="1" stroke-width="3.2"/>
<circle clip-path="url(#clip592)" cx="495.82" cy="1386.4" r="14" fill="#3da44d" fill-rule="evenodd" fill-opacity="1" stroke="#000000" stroke-opacity="1" stroke-width="3.2"/>
<circle clip-path="url(#clip592)" cx="567.683" cy="1386.4" r="14" fill="#3da44d" fill-rule="evenodd" fill-opacity="1" stroke="#000000" stroke-opacity="1" stroke-width="3.2"/>
<circle clip-path="url(#clip592)" cx="639.545" cy="1386.4" r="14" fill="#3da44d" fill-rule="evenodd" fill-opacity="1" stroke="#000000" stroke-opacity="1" stroke-width="3.2"/>
<circle clip-path="url(#clip592)" cx="711.408" cy="1386.4" r="14" fill="#3da44d" fill-rule="evenodd" fill-opacity="1" stroke="#000000" stroke-opacity="1" stroke-width="3.2"/>
<circle clip-path="url(#clip592)" cx="783.271" cy="1386.4" r="14" fill="#3da44d" fill-rule="evenodd" fill-opacity="1" stroke="#000000" stroke-opacity="1" stroke-width="3.2"/>
<circle clip-path="url(#clip592)" cx="855.134" cy="1386.4" r="14" fill="#3da44d" fill-rule="evenodd" fill-opacity="1" stroke="#000000" stroke-opacity="1" stroke-width="3.2"/>
<circle clip-path="url(#clip592)" cx="926.997" cy="1386.4" r="14" fill="#3da44d" fill-rule="evenodd" fill-opacity="1" stroke="#000000" stroke-opacity="1" stroke-width="3.2"/>
<circle clip-path="url(#clip592)" cx="998.86" cy="1386.4" r="14" fill="#3da44d" fill-rule="evenodd" fill-opacity="1" stroke="#000000" stroke-opacity="1" stroke-width="3.2"/>
<circle clip-path="url(#clip592)" cx="1070.72" cy="1386.37" r="14" fill="#3da44d" fill-rule="evenodd" fill-opacity="1" stroke="#000000" stroke-opacity="1" stroke-width="3.2"/>
<circle clip-path="url(#clip592)" cx="1142.59" cy="1231.39" r="14" fill="#3da44d" fill-rule="evenodd" fill-opacity="1" stroke="#000000" stroke-opacity="1" stroke-width="3.2"/>
<circle clip-path="url(#clip592)" cx="1214.45" cy="527.323" r="14" fill="#3da44d" fill-rule="evenodd" fill-opacity="1" stroke="#000000" stroke-opacity="1" stroke-width="3.2"/>
<circle clip-path="url(#clip592)" cx="1286.31" cy="432.455" r="14" fill="#3da44d" fill-rule="evenodd" fill-opacity="1" stroke="#000000" stroke-opacity="1" stroke-width="3.2"/>
<circle clip-path="url(#clip592)" cx="1358.17" cy="378.434" r="14" fill="#3da44d" fill-rule="evenodd" fill-opacity="1" stroke="#000000" stroke-opacity="1" stroke-width="3.2"/>
<circle clip-path="url(#clip592)" cx="1430.04" cy="340.319" r="14" fill="#3da44d" fill-rule="evenodd" fill-opacity="1" stroke="#000000" stroke-opacity="1" stroke-width="3.2"/>
<circle clip-path="url(#clip592)" cx="1501.9" cy="310.834" r="14" fill="#3da44d" fill-rule="evenodd" fill-opacity="1" stroke="#000000" stroke-opacity="1" stroke-width="3.2"/>
<circle clip-path="url(#clip592)" cx="1573.76" cy="286.813" r="14" fill="#3da44d" fill-rule="evenodd" fill-opacity="1" stroke="#000000" stroke-opacity="1" stroke-width="3.2"/>
<circle clip-path="url(#clip592)" cx="1645.63" cy="266.582" r="14" fill="#3da44d" fill-rule="evenodd" fill-opacity="1" stroke="#000000" stroke-opacity="1" stroke-width="3.2"/>
<circle clip-path="url(#clip592)" cx="1717.49" cy="249.145" r="14" fill="#3da44d" fill-rule="evenodd" fill-opacity="1" stroke="#000000" stroke-opacity="1" stroke-width="3.2"/>
<circle clip-path="url(#clip592)" cx="1789.35" cy="233.855" r="14" fill="#3da44d" fill-rule="evenodd" fill-opacity="1" stroke="#000000" stroke-opacity="1" stroke-width="3.2"/>
<circle clip-path="url(#clip592)" cx="1861.21" cy="220.272" r="14" fill="#3da44d" fill-rule="evenodd" fill-opacity="1" stroke="#000000" stroke-opacity="1" stroke-width="3.2"/>
<circle clip-path="url(#clip592)" cx="1933.08" cy="208.078" r="14" fill="#3da44d" fill-rule="evenodd" fill-opacity="1" stroke="#000000" stroke-opacity="1" stroke-width="3.2"/>
<circle clip-path="url(#clip592)" cx="2004.94" cy="197.039" r="14" fill="#3da44d" fill-rule="evenodd" fill-opacity="1" stroke="#000000" stroke-opacity="1" stroke-width="3.2"/>
<circle clip-path="url(#clip592)" cx="2076.8" cy="186.974" r="14" fill="#3da44d" fill-rule="evenodd" fill-opacity="1" stroke="#000000" stroke-opacity="1" stroke-width="3.2"/>
<circle clip-path="url(#clip592)" cx="2148.67" cy="177.743" r="14" fill="#3da44d" fill-rule="evenodd" fill-opacity="1" stroke="#000000" stroke-opacity="1" stroke-width="3.2"/>
<circle clip-path="url(#clip592)" cx="2220.53" cy="169.234" r="14" fill="#3da44d" fill-rule="evenodd" fill-opacity="1" stroke="#000000" stroke-opacity="1" stroke-width="3.2"/>
<circle clip-path="url(#clip592)" cx="2292.39" cy="161.356" r="14" fill="#3da44d" fill-rule="evenodd" fill-opacity="1" stroke="#000000" stroke-opacity="1" stroke-width="3.2"/>
<circle clip-path="url(#clip592)" cx="280.231" cy="1386.4" r="14" fill="#c271d2" fill-rule="evenodd" fill-opacity="1" stroke="#000000" stroke-opacity="1" stroke-width="3.2"/>
<circle clip-path="url(#clip592)" cx="352.094" cy="1386.4" r="14" fill="#c271d2" fill-rule="evenodd" fill-opacity="1" stroke="#000000" stroke-opacity="1" stroke-width="3.2"/>
<circle clip-path="url(#clip592)" cx="423.957" cy="1386.4" r="14" fill="#c271d2" fill-rule="evenodd" fill-opacity="1" stroke="#000000" stroke-opacity="1" stroke-width="3.2"/>
<circle clip-path="url(#clip592)" cx="495.82" cy="1386.4" r="14" fill="#c271d2" fill-rule="evenodd" fill-opacity="1" stroke="#000000" stroke-opacity="1" stroke-width="3.2"/>
<circle clip-path="url(#clip592)" cx="567.683" cy="1386.4" r="14" fill="#c271d2" fill-rule="evenodd" fill-opacity="1" stroke="#000000" stroke-opacity="1" stroke-width="3.2"/>
<circle clip-path="url(#clip592)" cx="639.545" cy="1386.4" r="14" fill="#c271d2" fill-rule="evenodd" fill-opacity="1" stroke="#000000" stroke-opacity="1" stroke-width="3.2"/>
<circle clip-path="url(#clip592)" cx="711.408" cy="1386.4" r="14" fill="#c271d2" fill-rule="evenodd" fill-opacity="1" stroke="#000000" stroke-opacity="1" stroke-width="3.2"/>
<circle clip-path="url(#clip592)" cx="783.271" cy="1386.4" r="14" fill="#c271d2" fill-rule="evenodd" fill-opacity="1" stroke="#000000" stroke-opacity="1" stroke-width="3.2"/>
<circle clip-path="url(#clip592)" cx="855.134" cy="1386.4" r="14" fill="#c271d2" fill-rule="evenodd" fill-opacity="1" stroke="#000000" stroke-opacity="1" stroke-width="3.2"/>
<circle clip-path="url(#clip592)" cx="926.997" cy="1386.4" r="14" fill="#c271d2" fill-rule="evenodd" fill-opacity="1" stroke="#000000" stroke-opacity="1" stroke-width="3.2"/>
<circle clip-path="url(#clip592)" cx="998.86" cy="1386.4" r="14" fill="#c271d2" fill-rule="evenodd" fill-opacity="1" stroke="#000000" stroke-opacity="1" stroke-width="3.2"/>
<circle clip-path="url(#clip592)" cx="1070.72" cy="1386.39" r="14" fill="#c271d2" fill-rule="evenodd" fill-opacity="1" stroke="#000000" stroke-opacity="1" stroke-width="3.2"/>
<circle clip-path="url(#clip592)" cx="1142.59" cy="1386.39" r="14" fill="#c271d2" fill-rule="evenodd" fill-opacity="1" stroke="#000000" stroke-opacity="1" stroke-width="3.2"/>
<circle clip-path="url(#clip592)" cx="1214.45" cy="528.795" r="14" fill="#c271d2" fill-rule="evenodd" fill-opacity="1" stroke="#000000" stroke-opacity="1" stroke-width="3.2"/>
<circle clip-path="url(#clip592)" cx="1286.31" cy="432.584" r="14" fill="#c271d2" fill-rule="evenodd" fill-opacity="1" stroke="#000000" stroke-opacity="1" stroke-width="3.2"/>
<circle clip-path="url(#clip592)" cx="1358.17" cy="378.459" r="14" fill="#c271d2" fill-rule="evenodd" fill-opacity="1" stroke="#000000" stroke-opacity="1" stroke-width="3.2"/>
<circle clip-path="url(#clip592)" cx="1430.04" cy="340.326" r="14" fill="#c271d2" fill-rule="evenodd" fill-opacity="1" stroke="#000000" stroke-opacity="1" stroke-width="3.2"/>
<circle clip-path="url(#clip592)" cx="1501.9" cy="310.836" r="14" fill="#c271d2" fill-rule="evenodd" fill-opacity="1" stroke="#000000" stroke-opacity="1" stroke-width="3.2"/>
<circle clip-path="url(#clip592)" cx="1573.76" cy="286.814" r="14" fill="#c271d2" fill-rule="evenodd" fill-opacity="1" stroke="#000000" stroke-opacity="1" stroke-width="3.2"/>
<circle clip-path="url(#clip592)" cx="1645.63" cy="266.582" r="14" fill="#c271d2" fill-rule="evenodd" fill-opacity="1" stroke="#000000" stroke-opacity="1" stroke-width="3.2"/>
<circle clip-path="url(#clip592)" cx="1717.49" cy="249.145" r="14" fill="#c271d2" fill-rule="evenodd" fill-opacity="1" stroke="#000000" stroke-opacity="1" stroke-width="3.2"/>
<circle clip-path="url(#clip592)" cx="1789.35" cy="233.855" r="14" fill="#c271d2" fill-rule="evenodd" fill-opacity="1" stroke="#000000" stroke-opacity="1" stroke-width="3.2"/>
<circle clip-path="url(#clip592)" cx="1861.21" cy="220.272" r="14" fill="#c271d2" fill-rule="evenodd" fill-opacity="1" stroke="#000000" stroke-opacity="1" stroke-width="3.2"/>
<circle clip-path="url(#clip592)" cx="1933.08" cy="208.078" r="14" fill="#c271d2" fill-rule="evenodd" fill-opacity="1" stroke="#000000" stroke-opacity="1" stroke-width="3.2"/>
<circle clip-path="url(#clip592)" cx="2004.94" cy="197.039" r="14" fill="#c271d2" fill-rule="evenodd" fill-opacity="1" stroke="#000000" stroke-opacity="1" stroke-width="3.2"/>
<circle clip-path="url(#clip592)" cx="2076.8" cy="186.974" r="14" fill="#c271d2" fill-rule="evenodd" fill-opacity="1" stroke="#000000" stroke-opacity="1" stroke-width="3.2"/>
<circle clip-path="url(#clip592)" cx="2148.67" cy="177.743" r="14" fill="#c271d2" fill-rule="evenodd" fill-opacity="1" stroke="#000000" stroke-opacity="1" stroke-width="3.2"/>
<circle clip-path="url(#clip592)" cx="2220.53" cy="169.234" r="14" fill="#c271d2" fill-rule="evenodd" fill-opacity="1" stroke="#000000" stroke-opacity="1" stroke-width="3.2"/>
<circle clip-path="url(#clip592)" cx="2292.39" cy="161.356" r="14" fill="#c271d2" fill-rule="evenodd" fill-opacity="1" stroke="#000000" stroke-opacity="1" stroke-width="3.2"/>
<polyline clip-path="url(#clip592)" style="stroke:#ac8d18; stroke-width:8; stroke-opacity:1; fill:none" points="
  280.231,1386.4 308.976,1386.4 337.721,1386.4 366.466,1386.4 395.212,1386.4 423.957,1386.4 452.702,1386.4 481.447,1386.4 510.192,1386.4 538.937,1386.4 
  567.683,1386.4 596.428,1386.4 625.173,1386.4 653.918,1386.4 682.663,1386.4 711.408,1386.4 740.153,1386.4 768.899,1386.4 797.644,1386.4 826.389,1386.4 
  855.134,1386.4 883.879,1386.4 912.624,1386.4 941.369,1386.4 970.115,1386.4 998.86,1386.4 1027.6,1386.4 1056.35,1386.4 1085.1,1386.4 1113.84,1386.4 
  1142.59,1386.4 1171.33,697.009 1200.08,562.388 1228.82,502.659 1257.57,462.794 1286.31,432.584 1315.06,408.163 1343.8,387.628 1372.55,369.892 1401.29,354.277 
  1430.04,340.326 1458.78,327.721 1487.53,316.225 1516.27,305.662 1545.02,295.894 1573.76,286.814 1602.51,278.332 1631.25,270.38 1660,262.896 1688.74,255.832 
  1717.49,249.145 1746.23,242.799 1774.98,236.765 1803.72,231.014 1832.47,225.523 1861.21,220.272 1889.96,215.243 1918.7,210.418 1947.45,205.784 1976.19,201.329 
  2004.94,197.039 2033.68,192.904 2062.43,188.916 2091.18,185.065 2119.92,181.343 2148.67,177.743 2177.41,174.258 2206.16,170.882 2234.9,167.61 2263.65,164.437 
  2292.39,161.356 
  "/>
<path clip-path="url(#clip590)" d="
M1639.05 529.676 L2281.66 529.676 L2281.66 166.796 L1639.05 166.796  Z
  " fill="#ffffff" fill-rule="evenodd" fill-opacity="1"/>
<polyline clip-path="url(#clip590)" style="stroke:#000000; stroke-width:4; stroke-opacity:1; fill:none" points="
  1639.05,529.676 2281.66,529.676 2281.66,166.796 1639.05,166.796 1639.05,529.676 
  "/>
<circle clip-path="url(#clip590)" cx="1733.84" cy="227.276" r="23" fill="#009af9" fill-rule="evenodd" fill-opacity="1" stroke="#000000" stroke-opacity="1" stroke-width="5.12"/>
<path clip-path="url(#clip590)" d="M 0 0 M1833.32 228.051 L1833.32 240.713 L1840.82 240.713 Q1844.59 240.713 1846.39 239.162 Q1848.22 237.588 1848.22 234.371 Q1848.22 231.13 1846.39 229.602 Q1844.59 228.051 1840.82 228.051 L1833.32 228.051 M1833.32 213.838 L1833.32 224.255 L1840.24 224.255 Q1843.66 224.255 1845.33 222.982 Q1847.02 221.685 1847.02 219.047 Q1847.02 216.431 1845.33 215.135 Q1843.66 213.838 1840.24 213.838 L1833.32 213.838 M1828.64 209.996 L1840.58 209.996 Q1845.93 209.996 1848.82 212.218 Q1851.72 214.44 1851.72 218.537 Q1851.72 221.709 1850.24 223.584 Q1848.75 225.459 1845.88 225.922 Q1849.33 226.662 1851.23 229.023 Q1853.15 231.361 1853.15 234.88 Q1853.15 239.509 1850 242.033 Q1846.86 244.556 1841.05 244.556 L1828.64 244.556 L1828.64 209.996 Z" fill="#000000" fill-rule="evenodd" fill-opacity="1" /><path clip-path="url(#clip590)" d="M 0 0 M1886.21 212.658 L1886.21 217.588 Q1883.85 215.389 1881.16 214.301 Q1878.5 213.213 1875.49 213.213 Q1869.56 213.213 1866.42 216.848 Q1863.27 220.459 1863.27 227.31 Q1863.27 234.139 1866.42 237.773 Q1869.56 241.384 1875.49 241.384 Q1878.5 241.384 1881.16 240.296 Q1883.85 239.209 1886.21 237.009 L1886.21 241.894 Q1883.75 243.56 1881 244.394 Q1878.27 245.227 1875.21 245.227 Q1867.37 245.227 1862.85 240.435 Q1858.34 235.621 1858.34 227.31 Q1858.34 218.977 1862.85 214.186 Q1867.37 209.371 1875.21 209.371 Q1878.31 209.371 1881.05 210.204 Q1883.8 211.014 1886.21 212.658 Z" fill="#000000" fill-rule="evenodd" fill-opacity="1" /><path clip-path="url(#clip590)" d="M 0 0 M1902.34 244.556 L1889.15 209.996 L1894.03 209.996 L1904.98 239.093 L1915.95 209.996 L1920.81 209.996 L1907.64 244.556 L1902.34 244.556 Z" fill="#000000" fill-rule="evenodd" fill-opacity="1" /><path clip-path="url(#clip590)" d="M 0 0 M1925.33 209.996 L1930.03 209.996 L1930.03 230.991 Q1930.03 236.547 1932.04 239 Q1934.06 241.431 1938.57 241.431 Q1943.06 241.431 1945.07 239 Q1947.09 236.547 1947.09 230.991 L1947.09 209.996 L1951.79 209.996 L1951.79 231.57 Q1951.79 238.329 1948.43 241.778 Q1945.1 245.227 1938.57 245.227 Q1932.02 245.227 1928.66 241.778 Q1925.33 238.329 1925.33 231.57 L1925.33 209.996 Z" fill="#000000" fill-rule="evenodd" fill-opacity="1" /><path clip-path="url(#clip590)" d="M 0 0 M1960.56 209.996 L1967.53 209.996 L1976.35 233.514 L1985.21 209.996 L1992.18 209.996 L1992.18 244.556 L1987.62 244.556 L1987.62 214.209 L1978.71 237.912 L1974.01 237.912 L1965.1 214.209 L1965.1 244.556 L1960.56 244.556 L1960.56 209.996 Z" fill="#000000" fill-rule="evenodd" fill-opacity="1" /><path clip-path="url(#clip590)" d="M 0 0 M2006.14 213.838 L2006.14 226.824 L2012.02 226.824 Q2015.28 226.824 2017.06 225.135 Q2018.85 223.445 2018.85 220.32 Q2018.85 217.218 2017.06 215.528 Q2015.28 213.838 2012.02 213.838 L2006.14 213.838 M2001.46 209.996 L2012.02 209.996 Q2017.83 209.996 2020.79 212.635 Q2023.78 215.25 2023.78 220.32 Q2023.78 225.435 2020.79 228.051 Q2017.83 230.667 2012.02 230.667 L2006.14 230.667 L2006.14 244.556 L2001.46 244.556 L2001.46 209.996 Z" fill="#000000" fill-rule="evenodd" fill-opacity="1" /><path clip-path="url(#clip590)" d="M 0 0 M2050.77 211.13 L2050.77 215.69 Q2048.11 214.417 2045.74 213.792 Q2043.38 213.167 2041.18 213.167 Q2037.36 213.167 2035.28 214.648 Q2033.22 216.13 2033.22 218.861 Q2033.22 221.153 2034.59 222.334 Q2035.98 223.491 2039.82 224.209 L2042.64 224.787 Q2047.87 225.783 2050.35 228.306 Q2052.85 230.806 2052.85 235.019 Q2052.85 240.042 2049.47 242.634 Q2046.11 245.227 2039.61 245.227 Q2037.16 245.227 2034.38 244.671 Q2031.62 244.116 2028.66 243.028 L2028.66 238.213 Q2031.51 239.81 2034.24 240.621 Q2036.97 241.431 2039.61 241.431 Q2043.61 241.431 2045.79 239.857 Q2047.97 238.283 2047.97 235.366 Q2047.97 232.82 2046.39 231.384 Q2044.84 229.949 2041.28 229.232 L2038.43 228.676 Q2033.2 227.635 2030.86 225.412 Q2028.52 223.19 2028.52 219.232 Q2028.52 214.648 2031.74 212.01 Q2034.98 209.371 2040.65 209.371 Q2043.08 209.371 2045.61 209.811 Q2048.13 210.25 2050.77 211.13 Z" fill="#000000" fill-rule="evenodd" fill-opacity="1" /><path clip-path="url(#clip590)" d="M 0 0 M2079.89 213.838 L2079.89 240.713 L2085.54 240.713 Q2092.69 240.713 2096 237.472 Q2099.33 234.232 2099.33 227.241 Q2099.33 220.297 2096 217.079 Q2092.69 213.838 2085.54 213.838 L2079.89 213.838 M2075.21 209.996 L2084.82 209.996 Q2094.86 209.996 2099.56 214.186 Q2104.26 218.352 2104.26 227.241 Q2104.26 236.176 2099.54 240.366 Q2094.82 244.556 2084.82 244.556 L2075.21 244.556 L2075.21 209.996 Z" fill="#000000" fill-rule="evenodd" fill-opacity="1" /><path clip-path="url(#clip590)" d="M 0 0 M2127.16 223.028 L2156.83 223.028 L2156.83 226.917 L2127.16 226.917 L2127.16 223.028 M2127.16 232.472 L2156.83 232.472 L2156.83 236.408 L2127.16 236.408 L2127.16 232.472 Z" fill="#000000" fill-rule="evenodd" fill-opacity="1" /><path clip-path="url(#clip590)" d="M 0 0 M2186.02 240.621 L2202.34 240.621 L2202.34 244.556 L2180.4 244.556 L2180.4 240.621 Q2183.06 237.866 2187.64 233.236 Q2192.25 228.584 2193.43 227.241 Q2195.67 224.718 2196.55 222.982 Q2197.46 221.223 2197.46 219.533 Q2197.46 216.778 2195.51 215.042 Q2193.59 213.306 2190.49 213.306 Q2188.29 213.306 2185.84 214.07 Q2183.41 214.834 2180.63 216.385 L2180.63 211.662 Q2183.45 210.528 2185.91 209.949 Q2188.36 209.371 2190.4 209.371 Q2195.77 209.371 2198.96 212.056 Q2202.16 214.741 2202.16 219.232 Q2202.16 221.361 2201.35 223.283 Q2200.56 225.181 2198.45 227.773 Q2197.87 228.445 2194.77 231.662 Q2191.67 234.857 2186.02 240.621 Z" fill="#000000" fill-rule="evenodd" fill-opacity="1" /><circle clip-path="url(#clip590)" cx="1733.84" cy="287.756" r="23" fill="#e26f46" fill-rule="evenodd" fill-opacity="1" stroke="#000000" stroke-opacity="1" stroke-width="5.12"/>
<path clip-path="url(#clip590)" d="M 0 0 M1833.32 288.531 L1833.32 301.193 L1840.82 301.193 Q1844.59 301.193 1846.39 299.642 Q1848.22 298.068 1848.22 294.851 Q1848.22 291.61 1846.39 290.082 Q1844.59 288.531 1840.82 288.531 L1833.32 288.531 M1833.32 274.318 L1833.32 284.735 L1840.24 284.735 Q1843.66 284.735 1845.33 283.462 Q1847.02 282.165 1847.02 279.527 Q1847.02 276.911 1845.33 275.615 Q1843.66 274.318 1840.24 274.318 L1833.32 274.318 M1828.64 270.476 L1840.58 270.476 Q1845.93 270.476 1848.82 272.698 Q1851.72 274.92 1851.72 279.017 Q1851.72 282.189 1850.24 284.064 Q1848.75 285.939 1845.88 286.402 Q1849.33 287.142 1851.23 289.503 Q1853.15 291.841 1853.15 295.36 Q1853.15 299.989 1850 302.513 Q1846.86 305.036 1841.05 305.036 L1828.64 305.036 L1828.64 270.476 Z" fill="#000000" fill-rule="evenodd" fill-opacity="1" /><path clip-path="url(#clip590)" d="M 0 0 M1886.21 273.138 L1886.21 278.068 Q1883.85 275.869 1881.16 274.781 Q1878.5 273.693 1875.49 273.693 Q1869.56 273.693 1866.42 277.328 Q1863.27 280.939 1863.27 287.79 Q1863.27 294.619 1866.42 298.253 Q1869.56 301.864 1875.49 301.864 Q1878.5 301.864 1881.16 300.776 Q1883.85 299.689 1886.21 297.489 L1886.21 302.374 Q1883.75 304.04 1881 304.874 Q1878.27 305.707 1875.21 305.707 Q1867.37 305.707 1862.85 300.915 Q1858.34 296.101 1858.34 287.79 Q1858.34 279.457 1862.85 274.666 Q1867.37 269.851 1875.21 269.851 Q1878.31 269.851 1881.05 270.684 Q1883.8 271.494 1886.21 273.138 Z" fill="#000000" fill-rule="evenodd" fill-opacity="1" /><path clip-path="url(#clip590)" d="M 0 0 M1902.34 305.036 L1889.15 270.476 L1894.03 270.476 L1904.98 299.573 L1915.95 270.476 L1920.81 270.476 L1907.64 305.036 L1902.34 305.036 Z" fill="#000000" fill-rule="evenodd" fill-opacity="1" /><path clip-path="url(#clip590)" d="M 0 0 M1925.33 270.476 L1930.03 270.476 L1930.03 291.471 Q1930.03 297.027 1932.04 299.48 Q1934.06 301.911 1938.57 301.911 Q1943.06 301.911 1945.07 299.48 Q1947.09 297.027 1947.09 291.471 L1947.09 270.476 L1951.79 270.476 L1951.79 292.05 Q1951.79 298.809 1948.43 302.258 Q1945.1 305.707 1938.57 305.707 Q1932.02 305.707 1928.66 302.258 Q1925.33 298.809 1925.33 292.05 L1925.33 270.476 Z" fill="#000000" fill-rule="evenodd" fill-opacity="1" /><path clip-path="url(#clip590)" d="M 0 0 M1960.56 270.476 L1967.53 270.476 L1976.35 293.994 L1985.21 270.476 L1992.18 270.476 L1992.18 305.036 L1987.62 305.036 L1987.62 274.689 L1978.71 298.392 L1974.01 298.392 L1965.1 274.689 L1965.1 305.036 L1960.56 305.036 L1960.56 270.476 Z" fill="#000000" fill-rule="evenodd" fill-opacity="1" /><path clip-path="url(#clip590)" d="M 0 0 M2006.14 274.318 L2006.14 287.304 L2012.02 287.304 Q2015.28 287.304 2017.06 285.615 Q2018.85 283.925 2018.85 280.8 Q2018.85 277.698 2017.06 276.008 Q2015.28 274.318 2012.02 274.318 L2006.14 274.318 M2001.46 270.476 L2012.02 270.476 Q2017.83 270.476 2020.79 273.115 Q2023.78 275.73 2023.78 280.8 Q2023.78 285.915 2020.79 288.531 Q2017.83 291.147 2012.02 291.147 L2006.14 291.147 L2006.14 305.036 L2001.46 305.036 L2001.46 270.476 Z" fill="#000000" fill-rule="evenodd" fill-opacity="1" /><path clip-path="url(#clip590)" d="M 0 0 M2050.77 271.61 L2050.77 276.17 Q2048.11 274.897 2045.74 274.272 Q2043.38 273.647 2041.18 273.647 Q2037.36 273.647 2035.28 275.128 Q2033.22 276.61 2033.22 279.341 Q2033.22 281.633 2034.59 282.814 Q2035.98 283.971 2039.82 284.689 L2042.64 285.267 Q2047.87 286.263 2050.35 288.786 Q2052.85 291.286 2052.85 295.499 Q2052.85 300.522 2049.47 303.114 Q2046.11 305.707 2039.61 305.707 Q2037.16 305.707 2034.38 305.151 Q2031.62 304.596 2028.66 303.508 L2028.66 298.693 Q2031.51 300.29 2034.24 301.101 Q2036.97 301.911 2039.61 301.911 Q2043.61 301.911 2045.79 300.337 Q2047.97 298.763 2047.97 295.846 Q2047.97 293.3 2046.39 291.864 Q2044.84 290.429 2041.28 289.712 L2038.43 289.156 Q2033.2 288.115 2030.86 285.892 Q2028.52 283.67 2028.52 279.712 Q2028.52 275.128 2031.74 272.49 Q2034.98 269.851 2040.65 269.851 Q2043.08 269.851 2045.61 270.291 Q2048.13 270.73 2050.77 271.61 Z" fill="#000000" fill-rule="evenodd" fill-opacity="1" /><path clip-path="url(#clip590)" d="M 0 0 M2079.89 274.318 L2079.89 301.193 L2085.54 301.193 Q2092.69 301.193 2096 297.952 Q2099.33 294.712 2099.33 287.721 Q2099.33 280.777 2096 277.559 Q2092.69 274.318 2085.54 274.318 L2079.89 274.318 M2075.21 270.476 L2084.82 270.476 Q2094.86 270.476 2099.56 274.666 Q2104.26 278.832 2104.26 287.721 Q2104.26 296.656 2099.54 300.846 Q2094.82 305.036 2084.82 305.036 L2075.21 305.036 L2075.21 270.476 Z" fill="#000000" fill-rule="evenodd" fill-opacity="1" /><path clip-path="url(#clip590)" d="M 0 0 M2127.16 283.508 L2156.83 283.508 L2156.83 287.397 L2127.16 287.397 L2127.16 283.508 M2127.16 292.952 L2156.83 292.952 L2156.83 296.888 L2127.16 296.888 L2127.16 292.952 Z" fill="#000000" fill-rule="evenodd" fill-opacity="1" /><path clip-path="url(#clip590)" d="M 0 0 M2194.84 274.55 L2183.04 292.999 L2194.84 292.999 L2194.84 274.55 M2193.61 270.476 L2199.49 270.476 L2199.49 292.999 L2204.42 292.999 L2204.42 296.888 L2199.49 296.888 L2199.49 305.036 L2194.84 305.036 L2194.84 296.888 L2179.24 296.888 L2179.24 292.374 L2193.61 270.476 Z" fill="#000000" fill-rule="evenodd" fill-opacity="1" /><circle clip-path="url(#clip590)" cx="1733.84" cy="348.236" r="23" fill="#3da44d" fill-rule="evenodd" fill-opacity="1" stroke="#000000" stroke-opacity="1" stroke-width="5.12"/>
<path clip-path="url(#clip590)" d="M 0 0 M1833.32 349.011 L1833.32 361.673 L1840.82 361.673 Q1844.59 361.673 1846.39 360.122 Q1848.22 358.548 1848.22 355.331 Q1848.22 352.09 1846.39 350.562 Q1844.59 349.011 1840.82 349.011 L1833.32 349.011 M1833.32 334.798 L1833.32 345.215 L1840.24 345.215 Q1843.66 345.215 1845.33 343.942 Q1847.02 342.645 1847.02 340.007 Q1847.02 337.391 1845.33 336.095 Q1843.66 334.798 1840.24 334.798 L1833.32 334.798 M1828.64 330.956 L1840.58 330.956 Q1845.93 330.956 1848.82 333.178 Q1851.72 335.4 1851.72 339.497 Q1851.72 342.669 1850.24 344.544 Q1848.75 346.419 1845.88 346.882 Q1849.33 347.622 1851.23 349.983 Q1853.15 352.321 1853.15 355.84 Q1853.15 360.469 1850 362.993 Q1846.86 365.516 1841.05 365.516 L1828.64 365.516 L1828.64 330.956 Z" fill="#000000" fill-rule="evenodd" fill-opacity="1" /><path clip-path="url(#clip590)" d="M 0 0 M1886.21 333.618 L1886.21 338.548 Q1883.85 336.349 1881.16 335.261 Q1878.5 334.173 1875.49 334.173 Q1869.56 334.173 1866.42 337.808 Q1863.27 341.419 1863.27 348.27 Q1863.27 355.099 1866.42 358.733 Q1869.56 362.344 1875.49 362.344 Q1878.5 362.344 1881.16 361.256 Q1883.85 360.169 1886.21 357.969 L1886.21 362.854 Q1883.75 364.52 1881 365.354 Q1878.27 366.187 1875.21 366.187 Q1867.37 366.187 1862.85 361.395 Q1858.34 356.581 1858.34 348.27 Q1858.34 339.937 1862.85 335.146 Q1867.37 330.331 1875.21 330.331 Q1878.31 330.331 1881.05 331.164 Q1883.8 331.974 1886.21 333.618 Z" fill="#000000" fill-rule="evenodd" fill-opacity="1" /><path clip-path="url(#clip590)" d="M 0 0 M1902.34 365.516 L1889.15 330.956 L1894.03 330.956 L1904.98 360.053 L1915.95 330.956 L1920.81 330.956 L1907.64 365.516 L1902.34 365.516 Z" fill="#000000" fill-rule="evenodd" fill-opacity="1" /><path clip-path="url(#clip590)" d="M 0 0 M1925.33 330.956 L1930.03 330.956 L1930.03 351.951 Q1930.03 357.507 1932.04 359.96 Q1934.06 362.391 1938.57 362.391 Q1943.06 362.391 1945.07 359.96 Q1947.09 357.507 1947.09 351.951 L1947.09 330.956 L1951.79 330.956 L1951.79 352.53 Q1951.79 359.289 1948.43 362.738 Q1945.1 366.187 1938.57 366.187 Q1932.02 366.187 1928.66 362.738 Q1925.33 359.289 1925.33 352.53 L1925.33 330.956 Z" fill="#000000" fill-rule="evenodd" fill-opacity="1" /><path clip-path="url(#clip590)" d="M 0 0 M1960.56 330.956 L1967.53 330.956 L1976.35 354.474 L1985.21 330.956 L1992.18 330.956 L1992.18 365.516 L1987.62 365.516 L1987.62 335.169 L1978.71 358.872 L1974.01 358.872 L1965.1 335.169 L1965.1 365.516 L1960.56 365.516 L1960.56 330.956 Z" fill="#000000" fill-rule="evenodd" fill-opacity="1" /><path clip-path="url(#clip590)" d="M 0 0 M2006.14 334.798 L2006.14 347.784 L2012.02 347.784 Q2015.28 347.784 2017.06 346.095 Q2018.85 344.405 2018.85 341.28 Q2018.85 338.178 2017.06 336.488 Q2015.28 334.798 2012.02 334.798 L2006.14 334.798 M2001.46 330.956 L2012.02 330.956 Q2017.83 330.956 2020.79 333.595 Q2023.78 336.21 2023.78 341.28 Q2023.78 346.395 2020.79 349.011 Q2017.83 351.627 2012.02 351.627 L2006.14 351.627 L2006.14 365.516 L2001.46 365.516 L2001.46 330.956 Z" fill="#000000" fill-rule="evenodd" fill-opacity="1" /><path clip-path="url(#clip590)" d="M 0 0 M2050.77 332.09 L2050.77 336.65 Q2048.11 335.377 2045.74 334.752 Q2043.38 334.127 2041.18 334.127 Q2037.36 334.127 2035.28 335.608 Q2033.22 337.09 2033.22 339.821 Q2033.22 342.113 2034.59 343.294 Q2035.98 344.451 2039.82 345.169 L2042.64 345.747 Q2047.87 346.743 2050.35 349.266 Q2052.85 351.766 2052.85 355.979 Q2052.85 361.002 2049.47 363.594 Q2046.11 366.187 2039.61 366.187 Q2037.16 366.187 2034.38 365.631 Q2031.62 365.076 2028.66 363.988 L2028.66 359.173 Q2031.51 360.77 2034.24 361.581 Q2036.97 362.391 2039.61 362.391 Q2043.61 362.391 2045.79 360.817 Q2047.97 359.243 2047.97 356.326 Q2047.97 353.78 2046.39 352.344 Q2044.84 350.909 2041.28 350.192 L2038.43 349.636 Q2033.2 348.595 2030.86 346.372 Q2028.52 344.15 2028.52 340.192 Q2028.52 335.608 2031.74 332.97 Q2034.98 330.331 2040.65 330.331 Q2043.08 330.331 2045.61 330.771 Q2048.13 331.21 2050.77 332.09 Z" fill="#000000" fill-rule="evenodd" fill-opacity="1" /><path clip-path="url(#clip590)" d="M 0 0 M2079.89 334.798 L2079.89 361.673 L2085.54 361.673 Q2092.69 361.673 2096 358.432 Q2099.33 355.192 2099.33 348.201 Q2099.33 341.257 2096 338.039 Q2092.69 334.798 2085.54 334.798 L2079.89 334.798 M2075.21 330.956 L2084.82 330.956 Q2094.86 330.956 2099.56 335.146 Q2104.26 339.312 2104.26 348.201 Q2104.26 357.136 2099.54 361.326 Q2094.82 365.516 2084.82 365.516 L2075.21 365.516 L2075.21 330.956 Z" fill="#000000" fill-rule="evenodd" fill-opacity="1" /><path clip-path="url(#clip590)" d="M 0 0 M2127.16 343.988 L2156.83 343.988 L2156.83 347.877 L2127.16 347.877 L2127.16 343.988 M2127.16 353.432 L2156.83 353.432 L2156.83 357.368 L2127.16 357.368 L2127.16 353.432 Z" fill="#000000" fill-rule="evenodd" fill-opacity="1" /><path clip-path="url(#clip590)" d="M 0 0 M2191.99 349.104 Q2188.66 349.104 2186.74 350.886 Q2184.84 352.669 2184.84 355.794 Q2184.84 358.919 2186.74 360.701 Q2188.66 362.483 2191.99 362.483 Q2195.33 362.483 2197.25 360.701 Q2199.17 358.895 2199.17 355.794 Q2199.17 352.669 2197.25 350.886 Q2195.35 349.104 2191.99 349.104 M2187.32 347.113 Q2184.31 346.372 2182.62 344.312 Q2180.95 342.252 2180.95 339.289 Q2180.95 335.146 2183.89 332.738 Q2186.85 330.331 2191.99 330.331 Q2197.16 330.331 2200.1 332.738 Q2203.04 335.146 2203.04 339.289 Q2203.04 342.252 2201.35 344.312 Q2199.68 346.372 2196.69 347.113 Q2200.07 347.9 2201.95 350.192 Q2203.85 352.483 2203.85 355.794 Q2203.85 360.817 2200.77 363.502 Q2197.71 366.187 2191.99 366.187 Q2186.28 366.187 2183.2 363.502 Q2180.14 360.817 2180.14 355.794 Q2180.14 352.483 2182.04 350.192 Q2183.94 347.9 2187.32 347.113 M2185.6 339.729 Q2185.6 342.414 2187.27 343.919 Q2188.96 345.423 2191.99 345.423 Q2195 345.423 2196.69 343.919 Q2198.41 342.414 2198.41 339.729 Q2198.41 337.044 2196.69 335.539 Q2195 334.034 2191.99 334.034 Q2188.96 334.034 2187.27 335.539 Q2185.6 337.044 2185.6 339.729 Z" fill="#000000" fill-rule="evenodd" fill-opacity="1" /><circle clip-path="url(#clip590)" cx="1733.84" cy="408.716" r="23" fill="#c271d2" fill-rule="evenodd" fill-opacity="1" stroke="#000000" stroke-opacity="1" stroke-width="5.12"/>
<path clip-path="url(#clip590)" d="M 0 0 M1833.32 409.491 L1833.32 422.153 L1840.82 422.153 Q1844.59 422.153 1846.39 420.602 Q1848.22 419.028 1848.22 415.811 Q1848.22 412.57 1846.39 411.042 Q1844.59 409.491 1840.82 409.491 L1833.32 409.491 M1833.32 395.278 L1833.32 405.695 L1840.24 405.695 Q1843.66 405.695 1845.33 404.422 Q1847.02 403.125 1847.02 400.487 Q1847.02 397.871 1845.33 396.575 Q1843.66 395.278 1840.24 395.278 L1833.32 395.278 M1828.64 391.436 L1840.58 391.436 Q1845.93 391.436 1848.82 393.658 Q1851.72 395.88 1851.72 399.977 Q1851.72 403.149 1850.24 405.024 Q1848.75 406.899 1845.88 407.362 Q1849.33 408.102 1851.23 410.463 Q1853.15 412.801 1853.15 416.32 Q1853.15 420.949 1850 423.473 Q1846.86 425.996 1841.05 425.996 L1828.64 425.996 L1828.64 391.436 Z" fill="#000000" fill-rule="evenodd" fill-opacity="1" /><path clip-path="url(#clip590)" d="M 0 0 M1886.21 394.098 L1886.21 399.028 Q1883.85 396.829 1881.16 395.741 Q1878.5 394.653 1875.49 394.653 Q1869.56 394.653 1866.42 398.288 Q1863.27 401.899 1863.27 408.75 Q1863.27 415.579 1866.42 419.213 Q1869.56 422.824 1875.49 422.824 Q1878.5 422.824 1881.16 421.736 Q1883.85 420.649 1886.21 418.449 L1886.21 423.334 Q1883.75 425 1881 425.834 Q1878.27 426.667 1875.21 426.667 Q1867.37 426.667 1862.85 421.875 Q1858.34 417.061 1858.34 408.75 Q1858.34 400.417 1862.85 395.626 Q1867.37 390.811 1875.21 390.811 Q1878.31 390.811 1881.05 391.644 Q1883.8 392.454 1886.21 394.098 Z" fill="#000000" fill-rule="evenodd" fill-opacity="1" /><path clip-path="url(#clip590)" d="M 0 0 M1902.34 425.996 L1889.15 391.436 L1894.03 391.436 L1904.98 420.533 L1915.95 391.436 L1920.81 391.436 L1907.64 425.996 L1902.34 425.996 Z" fill="#000000" fill-rule="evenodd" fill-opacity="1" /><path clip-path="url(#clip590)" d="M 0 0 M1925.33 391.436 L1930.03 391.436 L1930.03 412.431 Q1930.03 417.987 1932.04 420.44 Q1934.06 422.871 1938.57 422.871 Q1943.06 422.871 1945.07 420.44 Q1947.09 417.987 1947.09 412.431 L1947.09 391.436 L1951.79 391.436 L1951.79 413.01 Q1951.79 419.769 1948.43 423.218 Q1945.1 426.667 1938.57 426.667 Q1932.02 426.667 1928.66 423.218 Q1925.33 419.769 1925.33 413.01 L1925.33 391.436 Z" fill="#000000" fill-rule="evenodd" fill-opacity="1" /><path clip-path="url(#clip590)" d="M 0 0 M1960.56 391.436 L1967.53 391.436 L1976.35 414.954 L1985.21 391.436 L1992.18 391.436 L1992.18 425.996 L1987.62 425.996 L1987.62 395.649 L1978.71 419.352 L1974.01 419.352 L1965.1 395.649 L1965.1 425.996 L1960.56 425.996 L1960.56 391.436 Z" fill="#000000" fill-rule="evenodd" fill-opacity="1" /><path clip-path="url(#clip590)" d="M 0 0 M2006.14 395.278 L2006.14 408.264 L2012.02 408.264 Q2015.28 408.264 2017.06 406.575 Q2018.85 404.885 2018.85 401.76 Q2018.85 398.658 2017.06 396.968 Q2015.28 395.278 2012.02 395.278 L2006.14 395.278 M2001.46 391.436 L2012.02 391.436 Q2017.83 391.436 2020.79 394.075 Q2023.78 396.69 2023.78 401.76 Q2023.78 406.875 2020.79 409.491 Q2017.83 412.107 2012.02 412.107 L2006.14 412.107 L2006.14 425.996 L2001.46 425.996 L2001.46 391.436 Z" fill="#000000" fill-rule="evenodd" fill-opacity="1" /><path clip-path="url(#clip590)" d="M 0 0 M2050.77 392.57 L2050.77 397.13 Q2048.11 395.857 2045.74 395.232 Q2043.38 394.607 2041.18 394.607 Q2037.36 394.607 2035.28 396.088 Q2033.22 397.57 2033.22 400.301 Q2033.22 402.593 2034.59 403.774 Q2035.98 404.931 2039.82 405.649 L2042.64 406.227 Q2047.87 407.223 2050.35 409.746 Q2052.85 412.246 2052.85 416.459 Q2052.85 421.482 2049.47 424.074 Q2046.11 426.667 2039.61 426.667 Q2037.16 426.667 2034.38 426.111 Q2031.62 425.556 2028.66 424.468 L2028.66 419.653 Q2031.51 421.25 2034.24 422.061 Q2036.97 422.871 2039.61 422.871 Q2043.61 422.871 2045.79 421.297 Q2047.97 419.723 2047.97 416.806 Q2047.97 414.26 2046.39 412.824 Q2044.84 411.389 2041.28 410.672 L2038.43 410.116 Q2033.2 409.075 2030.86 406.852 Q2028.52 404.63 2028.52 400.672 Q2028.52 396.088 2031.74 393.45 Q2034.98 390.811 2040.65 390.811 Q2043.08 390.811 2045.61 391.251 Q2048.13 391.69 2050.77 392.57 Z" fill="#000000" fill-rule="evenodd" fill-opacity="1" /><path clip-path="url(#clip590)" d="M 0 0 M2079.89 395.278 L2079.89 422.153 L2085.54 422.153 Q2092.69 422.153 2096 418.912 Q2099.33 415.672 2099.33 408.681 Q2099.33 401.737 2096 398.519 Q2092.69 395.278 2085.54 395.278 L2079.89 395.278 M2075.21 391.436 L2084.82 391.436 Q2094.86 391.436 2099.56 395.626 Q2104.26 399.792 2104.26 408.681 Q2104.26 417.616 2099.54 421.806 Q2094.82 425.996 2084.82 425.996 L2075.21 425.996 L2075.21 391.436 Z" fill="#000000" fill-rule="evenodd" fill-opacity="1" /><path clip-path="url(#clip590)" d="M 0 0 M2127.16 404.468 L2156.83 404.468 L2156.83 408.357 L2127.16 408.357 L2127.16 404.468 M2127.16 413.912 L2156.83 413.912 L2156.83 417.848 L2127.16 417.848 L2127.16 413.912 Z" fill="#000000" fill-rule="evenodd" fill-opacity="1" /><path clip-path="url(#clip590)" d="M 0 0 M2182.8 422.061 L2190.44 422.061 L2190.44 395.695 L2182.13 397.362 L2182.13 393.102 L2190.4 391.436 L2195.07 391.436 L2195.07 422.061 L2202.71 422.061 L2202.71 425.996 L2182.8 425.996 L2182.8 422.061 Z" fill="#000000" fill-rule="evenodd" fill-opacity="1" /><path clip-path="url(#clip590)" d="M 0 0 M2222.73 406.852 Q2219.59 406.852 2217.73 409.005 Q2215.91 411.158 2215.91 414.908 Q2215.91 418.635 2217.73 420.811 Q2219.59 422.963 2222.73 422.963 Q2225.88 422.963 2227.71 420.811 Q2229.56 418.635 2229.56 414.908 Q2229.56 411.158 2227.71 409.005 Q2225.88 406.852 2222.73 406.852 M2232.02 392.2 L2232.02 396.459 Q2230.26 395.626 2228.45 395.186 Q2226.67 394.746 2224.91 394.746 Q2220.28 394.746 2217.83 397.871 Q2215.4 400.996 2215.05 407.315 Q2216.41 405.301 2218.48 404.237 Q2220.54 403.149 2223.01 403.149 Q2228.22 403.149 2231.23 406.32 Q2234.26 409.468 2234.26 414.908 Q2234.26 420.232 2231.11 423.449 Q2227.97 426.667 2222.73 426.667 Q2216.74 426.667 2213.57 422.084 Q2210.4 417.477 2210.4 408.75 Q2210.4 400.556 2214.29 395.695 Q2218.17 390.811 2224.73 390.811 Q2226.48 390.811 2228.27 391.158 Q2230.07 391.505 2232.02 392.2 Z" fill="#000000" fill-rule="evenodd" fill-opacity="1" /><polyline clip-path="url(#clip590)" style="stroke:#ac8d18; stroke-width:4; stroke-opacity:1; fill:none" points="
  1662.75,469.196 1804.94,469.196 
  "/>
<path clip-path="url(#clip590)" d="M 0 0 M1852.67 472.448 L1852.67 474.531 L1833.08 474.531 Q1833.36 478.929 1835.72 481.244 Q1838.11 483.536 1842.34 483.536 Q1844.8 483.536 1847.09 482.934 Q1849.4 482.332 1851.67 481.129 L1851.67 485.156 Q1849.38 486.128 1846.97 486.638 Q1844.57 487.147 1842.09 487.147 Q1835.88 487.147 1832.25 483.536 Q1828.64 479.925 1828.64 473.767 Q1828.64 467.402 1832.07 463.675 Q1835.51 459.925 1841.35 459.925 Q1846.58 459.925 1849.61 463.305 Q1852.67 466.661 1852.67 472.448 M1848.41 471.198 Q1848.36 467.703 1846.44 465.619 Q1844.54 463.536 1841.39 463.536 Q1837.83 463.536 1835.68 465.55 Q1833.55 467.564 1833.22 471.221 L1848.41 471.198 Z" fill="#000000" fill-rule="evenodd" fill-opacity="1" /><path clip-path="url(#clip590)" d="M 0 0 M1880.38 460.55 L1871 473.166 L1880.86 486.476 L1875.84 486.476 L1868.29 476.291 L1860.75 486.476 L1855.72 486.476 L1865.79 472.911 L1856.58 460.55 L1861.6 460.55 L1868.48 469.786 L1875.35 460.55 L1880.38 460.55 Z" fill="#000000" fill-rule="evenodd" fill-opacity="1" /><path clip-path="url(#clip590)" d="M 0 0 M1898.66 473.443 Q1893.5 473.443 1891.51 474.624 Q1889.52 475.804 1889.52 478.652 Q1889.52 480.92 1891 482.263 Q1892.5 483.582 1895.07 483.582 Q1898.62 483.582 1900.75 481.082 Q1902.9 478.559 1902.9 474.392 L1902.9 473.443 L1898.66 473.443 M1907.16 471.684 L1907.16 486.476 L1902.9 486.476 L1902.9 482.541 Q1901.44 484.902 1899.26 486.036 Q1897.09 487.147 1893.94 487.147 Q1889.96 487.147 1887.6 484.925 Q1885.26 482.679 1885.26 478.929 Q1885.26 474.554 1888.18 472.332 Q1891.12 470.11 1896.93 470.11 L1902.9 470.11 L1902.9 469.693 Q1902.9 466.754 1900.95 465.156 Q1899.03 463.536 1895.54 463.536 Q1893.31 463.536 1891.21 464.068 Q1889.1 464.601 1887.16 465.666 L1887.16 461.73 Q1889.5 460.828 1891.69 460.388 Q1893.89 459.925 1895.98 459.925 Q1901.6 459.925 1904.38 462.842 Q1907.16 465.758 1907.16 471.684 Z" fill="#000000" fill-rule="evenodd" fill-opacity="1" /><path clip-path="url(#clip590)" d="M 0 0 M1934.59 461.545 L1934.59 465.527 Q1932.78 464.531 1930.95 464.045 Q1929.15 463.536 1927.3 463.536 Q1923.15 463.536 1920.86 466.175 Q1918.57 468.791 1918.57 473.536 Q1918.57 478.281 1920.86 480.92 Q1923.15 483.536 1927.3 483.536 Q1929.15 483.536 1930.95 483.05 Q1932.78 482.541 1934.59 481.545 L1934.59 485.48 Q1932.81 486.314 1930.88 486.73 Q1928.99 487.147 1926.83 487.147 Q1920.98 487.147 1917.53 483.466 Q1914.08 479.786 1914.08 473.536 Q1914.08 467.193 1917.55 463.559 Q1921.05 459.925 1927.11 459.925 Q1929.08 459.925 1930.95 460.342 Q1932.83 460.735 1934.59 461.545 Z" fill="#000000" fill-rule="evenodd" fill-opacity="1" /><path clip-path="url(#clip590)" d="M 0 0 M1946.21 453.189 L1946.21 460.55 L1954.98 460.55 L1954.98 463.86 L1946.21 463.86 L1946.21 477.934 Q1946.21 481.105 1947.06 482.008 Q1947.94 482.911 1950.61 482.911 L1954.98 482.911 L1954.98 486.476 L1950.61 486.476 Q1945.68 486.476 1943.8 484.647 Q1941.93 482.795 1941.93 477.934 L1941.93 463.86 L1938.8 463.86 L1938.8 460.55 L1941.93 460.55 L1941.93 453.189 L1946.21 453.189 Z" fill="#000000" fill-rule="evenodd" fill-opacity="1" /></svg>
